<svg width="151" height="54" viewBox="0 0 151 54" fill="none" xmlns="http://www.w3.org/2000/svg">
<g clip-path="url(#clip0_404_681)" filter="url(#filter0_d_404_681)">
<path fill-rule="evenodd" clip-rule="evenodd" d="M92.7163 35.9743C84.4096 42.5199 72.3604 45.9857 61.9905 45.9857C48.1389 46.0567 34.7613 40.6063 24.4764 30.7016C23.6949 29.9675 24.3692 28.9425 25.3071 29.5146C36.7425 36.4941 49.6887 40.1606 62.8613 40.1505C72.7025 40.0982 82.4371 37.9709 91.506 33.891C92.9172 33.2665 94.0918 34.8874 92.7163 35.9743Z" fill="#FF9900"/>
<path fill-rule="evenodd" clip-rule="evenodd" d="M96.1729 31.76C95.11 30.3298 89.1479 31.0735 86.4684 31.4167C85.6556 31.5216 85.5305 30.7636 86.2629 30.2154C91.0192 26.6494 98.8123 27.6791 99.7189 28.871C100.625 30.0628 99.4777 38.4056 95.0207 42.3959C94.3329 43.0061 93.6809 42.6819 93.989 41.8715C94.9894 39.197 97.2358 33.214 96.1729 31.76Z" fill="#FF9900"/>
<path fill-rule="evenodd" clip-rule="evenodd" d="M86.6649 5.02477V1.55891C86.6625 1.44301 86.682 1.32777 86.7225 1.22017C86.7629 1.11257 86.8233 1.01482 86.9001 0.932844C86.9769 0.850865 87.0685 0.786347 87.1693 0.743187C87.2701 0.700026 87.378 0.679118 87.4866 0.681724H102.028C102.137 0.677191 102.247 0.696478 102.349 0.73841C102.451 0.780341 102.544 0.844042 102.623 0.925643C102.701 1.00724 102.764 1.10504 102.806 1.21308C102.848 1.32113 102.869 1.43717 102.867 1.55415V4.5242C102.867 5.00093 102.47 5.67312 101.773 6.70763L94.257 18.1921C97.0527 18.1206 100.014 18.5688 102.555 20.0991C102.784 20.2323 102.976 20.4276 103.111 20.6653C103.247 20.903 103.322 21.1747 103.327 21.453V25.1524C103.327 25.6625 102.805 26.2489 102.256 25.9438C99.8768 24.6396 97.2401 23.962 94.5658 23.9678C91.8916 23.9736 89.2575 24.6626 86.8837 25.9772C86.3791 26.2632 85.8476 25.6816 85.8476 25.1715V21.6485C85.8005 20.8141 85.9887 19.9838 86.388 19.2648L95.119 5.91626H87.5268C87.414 5.92434 87.3008 5.90704 87.1945 5.86549C87.0883 5.82393 86.9915 5.75904 86.9102 5.67501C86.829 5.59099 86.7652 5.48969 86.7229 5.37768C86.6807 5.26567 86.6609 5.14544 86.6649 5.02477Z" fill="black"/>
<path fill-rule="evenodd" clip-rule="evenodd" d="M33.5914 26.6542H29.1657C28.9659 26.6438 28.7762 26.5573 28.6312 26.4103C28.4861 26.2633 28.3953 26.0657 28.3752 25.8533V1.61613C28.3775 1.49905 28.4014 1.3836 28.4455 1.27639C28.4897 1.16917 28.5531 1.07229 28.6324 0.991274C28.7116 0.910257 28.805 0.846694 28.9072 0.804215C29.0094 0.761737 29.1185 0.741178 29.2282 0.743709H33.3503C33.5548 0.750051 33.7499 0.836748 33.8983 0.987184C34.0466 1.13762 34.1377 1.34121 34.1541 1.55892V4.72443H34.239C35.3108 1.6638 37.3384 0.233604 40.0447 0.233604C42.7511 0.233604 44.5464 1.6638 45.788 4.72443C46.2004 3.57282 46.8913 2.5584 47.7903 1.78437C48.6893 1.01035 49.7643 0.504347 50.906 0.317856C52.0477 0.131366 53.2153 0.271041 54.29 0.72267C55.3647 1.1743 56.3081 1.92176 57.0243 2.88901C58.4266 4.92943 58.1408 7.88994 58.1408 10.4929V25.796C58.1327 26.0267 58.0412 26.2449 57.8854 26.405C57.7297 26.565 57.5218 26.6543 57.3057 26.6542H52.8844C52.6726 26.6445 52.4723 26.5487 52.3245 26.3865C52.1768 26.2243 52.0926 26.008 52.0894 25.7817V12.9099C52.0894 11.8897 52.1743 9.33921 51.9644 8.37144C51.6339 6.73625 50.6246 6.27858 49.3607 6.27858C48.7861 6.297 48.2291 6.49523 47.7591 6.84866C47.289 7.20209 46.9266 7.69514 46.7169 8.26656C46.2703 9.49177 46.306 11.5322 46.306 12.9099V25.7817C46.3037 25.8988 46.2798 26.0143 46.2357 26.1215C46.1915 26.2287 46.128 26.3256 46.0488 26.4066C45.9696 26.4876 45.8762 26.5512 45.774 26.5937C45.6718 26.6361 45.5627 26.6567 45.453 26.6542H41.0317C40.8183 26.6493 40.6149 26.557 40.4635 26.3964C40.3122 26.2357 40.2246 26.019 40.2189 25.7913V12.9195C40.2189 10.2164 40.6298 6.24521 37.4947 6.24521C34.3596 6.24521 34.4355 10.1211 34.4355 12.9195V25.7913C34.4285 26.0244 34.3362 26.2453 34.1784 26.4066C34.0206 26.5679 33.8099 26.6568 33.5914 26.6542Z" fill="black"/>
<path fill-rule="evenodd" clip-rule="evenodd" d="M115.39 0.233604C121.946 0.233604 125.519 6.25475 125.519 13.9063C125.519 21.3052 121.593 27.1738 115.399 27.1738C108.955 27.1738 105.44 21.1527 105.44 13.6537C105.44 6.15463 108.995 0.233604 115.39 0.233604ZM115.43 5.20117C112.166 5.20117 111.96 9.9685 111.96 12.9052C111.96 15.8419 111.92 22.1919 115.39 22.1919C118.86 22.1919 118.963 17.0909 118.963 13.9778C118.963 11.9374 118.878 9.487 118.302 7.54669C117.828 5.84475 116.837 5.20117 115.43 5.20117Z" fill="black"/>
<path fill-rule="evenodd" clip-rule="evenodd" d="M134.031 26.6542H129.623C129.411 26.6445 129.211 26.5487 129.063 26.3865C128.915 26.2243 128.831 26.008 128.828 25.7817V1.52555C128.852 1.30481 128.953 1.10159 129.109 0.95535C129.266 0.809111 129.468 0.730285 129.677 0.734172H133.781C133.963 0.740702 134.138 0.810273 134.28 0.93239C134.422 1.05451 134.522 1.22254 134.567 1.41113V5.12012H134.652C135.893 1.78299 137.626 0.219299 140.681 0.219299C142.664 0.219299 144.606 0.982073 145.843 3.0797C147 5.02 147 8.28563 147 10.6312V25.8866C146.97 26.1022 146.867 26.2985 146.711 26.4389C146.554 26.5793 146.356 26.6541 146.151 26.6494H141.717C141.523 26.6394 141.339 26.5578 141.195 26.4186C141.052 26.2794 140.959 26.0914 140.931 25.8866V12.7336C140.931 10.0781 141.221 6.2023 138.162 6.2023C137.605 6.22838 137.067 6.42528 136.612 6.76941C136.158 7.11355 135.806 7.59032 135.598 8.14261C134.978 9.62525 134.897 11.1031 134.897 12.7383V25.7913C134.887 26.0273 134.79 26.2497 134.629 26.4109C134.467 26.5721 134.252 26.6594 134.031 26.6542Z" fill="black"/>
<path fill-rule="evenodd" clip-rule="evenodd" d="M75.0534 15.0838C75.0534 16.924 75.0936 18.4591 74.2227 20.0943C73.5171 21.4244 72.4006 22.2396 71.1591 22.2396C69.462 22.2396 68.4795 20.8571 68.4795 18.8119C68.4795 14.7883 71.8602 14.0446 75.0623 14.0446L75.0534 15.0838ZM79.5193 26.6017C79.3783 26.7355 79.2012 26.8181 79.0135 26.8378C78.8258 26.8575 78.637 26.8132 78.4743 26.7114C77.005 25.4051 76.7415 24.8044 75.9376 23.5649C73.5082 26.206 71.7888 26.9974 68.6403 26.9974C64.9157 26.9974 62.0172 24.5422 62.0172 19.6319C61.9646 17.9826 62.3895 16.3561 63.2343 14.9741C64.079 13.592 65.3024 12.5216 66.7378 11.9088C69.1405 10.7837 72.4944 10.5787 75.0623 10.2736V9.66339C75.0623 8.5383 75.1427 7.20821 74.5219 6.23567C74.2316 5.83218 73.8541 5.5096 73.4218 5.29543C72.9894 5.08127 72.515 4.98187 72.0389 5.0057C70.3507 5.0057 68.8502 5.93056 68.4661 7.8661C68.443 8.07988 68.3557 8.27993 68.2172 8.43633C68.0788 8.59273 67.8966 8.69708 67.6979 8.73376L63.4062 8.25702C63.3007 8.24162 63.1994 8.20339 63.1083 8.1447C63.0172 8.086 62.9383 8.00807 62.8764 7.91568C62.8145 7.82329 62.771 7.71838 62.7484 7.60739C62.7259 7.49639 62.7248 7.38165 62.7452 7.27019C63.7322 1.71624 68.4304 0.0381393 72.6418 0.0381393C74.7944 0.0381393 77.6079 0.653125 79.3094 2.38843C81.462 4.53374 81.2566 7.3989 81.2566 10.5215V17.8441C81.2566 20.0609 82.1185 21.0287 82.9269 22.2205C83.2082 22.6496 83.2707 23.174 82.9269 23.4744C82.0337 24.2848 80.417 25.7722 79.5327 26.6113L79.5193 26.6017Z" fill="black"/>
<path fill-rule="evenodd" clip-rule="evenodd" d="M17.0407 15.0838C17.0407 16.924 17.0809 18.4591 16.2145 20.0943C15.5134 21.4244 14.3924 22.2396 13.1509 22.2396C11.4538 22.2396 10.4713 20.8571 10.4713 18.8119C10.4713 14.7883 13.852 14.0446 17.0541 14.0446L17.0407 15.0838ZM21.5067 26.6017C21.3656 26.7355 21.1886 26.8181 21.0008 26.8378C20.8131 26.8575 20.6244 26.8132 20.4616 26.7114C18.9923 25.4051 18.7288 24.8044 17.925 23.5649C15.4955 26.206 13.7761 26.9974 10.6276 26.9974C6.90299 26.9974 4.00458 24.5422 4.00458 19.6319C3.95189 17.9826 4.37688 16.3561 5.22162 14.9741C6.06636 13.592 7.28976 12.5216 8.7251 11.9088C11.1278 10.7837 14.4817 10.5787 17.0452 10.2736V9.66339C17.0452 8.53829 17.13 7.20821 16.5093 6.23567C16.2189 5.83217 15.8415 5.5096 15.4091 5.29543C14.9768 5.08127 14.5023 4.98187 14.0262 5.0057C12.3381 5.0057 10.8375 5.93056 10.4534 7.8661C10.4296 8.0796 10.3421 8.27926 10.2038 8.43552C10.0654 8.59178 9.88362 8.69635 9.68528 8.73376L5.39796 8.25702C5.29255 8.24161 5.19119 8.20339 5.1001 8.1447C5.00901 8.086 4.93011 8.00807 4.86823 7.91568C4.80634 7.82329 4.76279 7.71838 4.74022 7.60739C4.71766 7.49639 4.71656 7.38165 4.737 7.27018C5.72844 1.6781 10.4311 0 14.6425 0C16.7951 0 19.6086 0.614986 21.3102 2.3503C23.4583 4.50036 23.2484 7.36076 23.2484 10.4834V17.8441C23.2484 20.0609 24.1103 21.0287 24.9187 22.2205C25.2 22.6496 25.267 23.174 24.9187 23.4744C24.0255 24.2848 22.4088 25.7722 21.5245 26.6113L21.5067 26.6017Z" fill="black"/>
</g>
<defs>
<filter id="filter0_d_404_681" x="0" y="0" width="151" height="54" filterUnits="userSpaceOnUse" color-interpolation-filters="sRGB">
<feFlood flood-opacity="0" result="BackgroundImageFix"/>
<feColorMatrix in="SourceAlpha" type="matrix" values="0 0 0 0 0 0 0 0 0 0 0 0 0 0 0 0 0 0 127 0" result="hardAlpha"/>
<feOffset dy="4"/>
<feGaussianBlur stdDeviation="2"/>
<feComposite in2="hardAlpha" operator="out"/>
<feColorMatrix type="matrix" values="0 0 0 0 0 0 0 0 0 0 0 0 0 0 0 0 0 0 0.25 0"/>
<feBlend mode="normal" in2="BackgroundImageFix" result="effect1_dropShadow_404_681"/>
<feBlend mode="normal" in="SourceGraphic" in2="effect1_dropShadow_404_681" result="shape"/>
</filter>
<clipPath id="clip0_404_681">
<rect width="143" height="46" fill="white" transform="translate(4)"/>
</clipPath>
</defs>
</svg>
