<?xml version="1.0" standalone="no"?>
<!DOCTYPE svg PUBLIC "-//W3C//DTD SVG 20010904//EN"
 "http://www.w3.org/TR/2001/REC-SVG-20010904/DTD/svg10.dtd">
<svg version="1.0" xmlns="http://www.w3.org/2000/svg"
 width="1468.000000pt" height="958.000000pt" viewBox="0 0 1468.000000 958.000000"
 preserveAspectRatio="xMidYMid meet">

<g transform="translate(0.000000,958.000000) scale(0.100000,-0.100000)"
fill="#000000" stroke="none">
<path d="M4913 9548 c-107 -115 -209 -271 -268 -408 -98 -228 -119 -346 -129
-715 -4 -156 -5 -160 -30 -181 -47 -41 -85 -11 -112 88 -10 39 -14 121 -14
311 l0 257 -24 0 c-41 0 -103 -93 -145 -218 -41 -122 -58 -355 -37 -497 30
-194 107 -399 195 -518 58 -79 84 -132 76 -157 -8 -25 -14 -25 -51 3 -95 71
-161 175 -298 469 -57 122 -80 148 -114 127 -43 -27 -51 -101 -26 -238 32
-175 113 -376 212 -525 97 -146 340 -365 558 -504 101 -63 342 -188 449 -232
44 -18 85 -36 91 -41 14 -11 9 -327 -6 -421 -37 -221 -191 -355 -384 -333 -76
8 -125 29 -206 89 -123 89 -163 79 -332 -81 -91 -86 -139 -123 -183 -143 -68
-31 -301 -110 -485 -165 -227 -68 -364 -116 -415 -145 -46 -27 -95 -77 -95
-98 0 -19 37 -41 65 -39 48 3 36 -21 -25 -52 -66 -34 -74 -64 -25 -91 43 -24
44 -48 4 -81 -30 -24 -32 -30 -24 -55 6 -16 23 -35 37 -44 44 -24 122 8 463
190 44 23 85 46 90 50 45 35 499 244 662 305 164 62 297 37 560 -104 185 -100
365 -153 523 -154 97 -1 110 1 170 29 41 19 119 76 210 151 283 233 360 273
532 273 146 0 228 -23 458 -130 179 -84 259 -120 265 -120 2 0 28 -11 57 -24
174 -78 334 -129 465 -147 117 -16 439 -18 528 -2 42 7 115 26 163 42 232 77
387 41 539 -126 76 -84 132 -124 187 -137 18 -4 66 3 130 18 241 61 402 71
563 37 105 -23 180 -52 313 -123 106 -57 97 -52 311 -172 201 -112 429 -200
474 -182 8 3 15 15 15 27 0 20 3 21 49 15 54 -7 73 5 69 45 -3 23 0 24 53 24
67 0 89 15 89 62 0 41 -28 71 -135 143 -73 50 -273 170 -282 170 -3 0 -91 51
-197 114 -311 184 -361 213 -418 240 -56 26 -299 106 -323 106 -28 0 -131 62
-177 107 -72 71 -109 148 -115 244 -4 52 -1 93 7 119 17 52 2 88 -68 160 -64
67 -68 98 -12 116 51 17 58 34 35 96 -10 29 -25 64 -32 78 -22 42 -17 87 13
106 32 22 54 65 93 188 20 62 31 115 29 140 l-3 41 -55 7 c-30 3 -107 11 -170
17 -136 14 -294 55 -425 111 -93 41 -271 125 -525 249 -91 44 -98 46 -180 45
-124 -2 -360 -72 -360 -107 0 -6 10 -21 21 -34 20 -21 21 -23 5 -29 -15 -6
-263 2 -321 10 -144 19 -177 19 -226 -5 -64 -29 -69 -29 -529 61 -58 11 -111
18 -119 15 -9 -4 -12 -15 -8 -35 10 -50 -16 -55 -146 -30 -62 11 -123 23 -137
26 -14 2 -36 7 -50 10 -57 13 -187 16 -195 5 -12 -21 3 -55 35 -76 17 -11 29
-26 28 -34 -2 -8 -34 -23 -73 -35 -60 -17 -98 -20 -260 -21 -212 0 -255 8
-404 80 -155 75 -322 246 -410 422 -69 138 -136 365 -161 548 -9 69 -12 101
-25 260 -8 101 19 406 44 505 6 19 22 82 36 140 32 126 98 296 171 443 l54
107 -98 0 c-98 0 -98 0 -129 -32z m-204 -1919 c-14 -26 -29 -24 -29 4 0 30 10
40 26 26 10 -8 11 -16 3 -30z m-3 -86 c-10 -10 -19 5 -10 18 6 11 8 11 12 0 2
-7 1 -15 -2 -18z m34 -78 c0 -8 -4 -15 -10 -15 -5 0 -10 7 -10 15 0 8 5 15 10
15 6 0 10 -7 10 -15z m-39 -46 c8 -15 8 -24 0 -32 -13 -13 -16 -10 -25 26 -8
32 8 36 25 6z m37 -96 c-5 -25 -28 -28 -28 -4 0 12 6 21 16 21 9 0 14 -7 12
-17z m18 -48 c-23 -17 -36 -19 -36 -6 0 11 18 19 40 20 11 0 10 -3 -4 -14z
m51 -71 c-9 -9 -28 6 -21 18 4 6 10 6 17 -1 6 -6 8 -13 4 -17z m63 10 c0 -9
-7 -14 -17 -12 -25 5 -28 28 -4 28 12 0 21 -6 21 -16z m-150 -86 c0 -7 -9 1
-20 17 -26 39 -26 55 0 22 11 -14 20 -31 20 -39z m3190 -258 c0 -5 -4 -10 -9
-10 -6 0 -13 5 -16 10 -3 6 1 10 9 10 9 0 16 -4 16 -10z m525 -31 c-3 -4 -12
-6 -20 -3 -8 4 -13 10 -10 15 3 4 12 6 20 3 8 -4 13 -10 10 -15z m-385 -19
c12 -8 9 -10 -13 -10 -16 0 -26 4 -22 10 8 12 16 12 35 0z m300 -102 c0 -13
-23 -5 -28 10 -2 7 2 10 12 6 9 -3 16 -11 16 -16z m-311 6 c38 -8 40 -20 4
-27 -31 -6 -73 7 -73 23 0 11 23 13 69 4z m188 -35 c6 -6 35 -13 63 -15 60 -5
70 -9 70 -30 0 -18 -18 -18 -63 1 -20 8 -58 15 -85 15 -44 0 -72 12 -72 32 0
12 74 10 87 -3z m273 1 c0 -13 -11 -13 -30 0 -12 8 -11 10 8 10 12 0 22 -4 22
-10z m-1980 -14 c0 -16 -37 -28 -46 -15 -4 7 19 22 44 28 1 1 2 -5 2 -13z
m2148 -13 c-4 -22 -22 -20 -26 1 -2 10 3 16 13 16 10 0 15 -7 13 -17z m-224
-24 c5 -5 7 -12 3 -15 -9 -9 -67 16 -67 28 0 12 50 2 64 -13z m493 -82 l1 -33
-34 10 c-48 15 -42 49 9 54 20 1 23 -3 24 -31z m158 23 c3 -5 1 -10 -4 -10 -6
0 -11 5 -11 10 0 6 2 10 4 10 3 0 8 -4 11 -10z m-1625 -94 c0 -2 -7 -9 -15
-16 -12 -10 -15 -10 -15 4 0 9 7 16 15 16 8 0 15 -2 15 -4z m-90 -21 c0 -8 -7
-15 -16 -15 -14 0 -14 3 -4 15 7 8 14 15 16 15 2 0 4 -7 4 -15z m-120 -74 c0
-12 -20 -25 -27 -18 -7 7 6 27 18 27 5 0 9 -4 9 -9z m-646 -32 c-7 -12 -93
-53 -99 -47 -7 7 10 23 50 45 39 20 61 22 49 2z m1138 4 c23 -20 24 -48 2 -39
-9 3 -22 6 -30 6 -20 0 -30 30 -13 41 19 12 20 12 41 -8z m283 7 c7 -12 -19
-53 -28 -43 -4 3 -7 17 -7 30 0 23 23 32 35 13z m-1295 -45 c0 -8 -7 -15 -15
-15 -8 0 -15 7 -15 15 0 8 7 15 15 15 8 0 15 -7 15 -15z m1124 -10 c3 -8 1
-17 -3 -19 -13 -8 -45 20 -37 32 8 14 33 5 40 -13z m316 -15 c5 0 10 -4 10
-10 0 -15 -26 -12 -40 5 -7 8 -9 23 -5 32 6 16 8 16 16 -4 4 -13 13 -23 19
-23z m-1037 -17 c5 -26 2 -35 -13 -43 -17 -9 -20 -8 -20 10 0 15 -7 20 -25 20
-32 0 -32 18 -1 30 13 5 27 14 31 20 10 16 21 1 28 -37z m105 30 c2 -8 -5 -13
-17 -13 -12 0 -21 -6 -21 -15 0 -8 -4 -15 -10 -15 -5 0 -10 7 -10 15 0 8 5 15
10 15 6 0 10 7 10 16 0 18 31 15 38 -3z m1624 1 c17 -11 6 -24 -19 -24 -28 1
-63 20 -63 35 0 7 67 -2 82 -11z m-792 -9 c0 -8 -7 -15 -15 -15 -16 0 -20 12
-8 23 11 12 23 8 23 -8z m266 5 c8 0 14 -6 14 -14 0 -21 -54 -15 -58 8 -3 14
0 17 13 12 9 -3 23 -6 31 -6z m-356 -10 c0 -5 -2 -10 -4 -10 -3 0 -8 5 -11 10
-3 6 -1 10 4 10 6 0 11 -4 11 -10z m260 0 c0 -5 -4 -10 -10 -10 -5 0 -10 5
-10 10 0 6 5 10 10 10 6 0 10 -4 10 -10z m694 -16 c4 -10 -2 -14 -19 -14 -28
0 -43 19 -25 30 17 10 37 3 44 -16z m-994 6 c0 -5 -4 -10 -10 -10 -5 0 -10 5
-10 10 0 6 5 10 10 10 6 0 10 -4 10 -10z m626 -1 c10 -17 -9 -29 -34 -22 -18
4 -20 8 -11 19 14 17 35 18 45 3z m-2168 -21 c-7 -22 -67 -56 -88 -51 -18 5
-17 7 8 28 41 34 88 47 80 23z m1632 4 c0 -16 -39 -44 -50 -37 -8 5 -6 13 6
26 17 19 44 26 44 11z m1008 -4 c-3 -7 -17 -13 -33 -13 -16 0 -30 6 -32 13 -3
8 7 12 32 12 25 0 35 -4 33 -12z m-948 -8 c13 -9 13 -11 0 -20 -22 -15 -30
-12 -30 10 0 22 8 25 30 10z m-1388 -72 c-6 -6 -15 -8 -19 -4 -4 4 -1 11 7 16
19 12 27 3 12 -12z m-277 -18 c-4 -12 -2 -27 4 -34 8 -10 7 -17 -3 -26 -18
-14 -40 -4 -32 15 2 7 0 17 -6 23 -8 8 -8 16 2 27 19 23 43 19 35 -5z m2071
-17 c-11 -11 -19 6 -11 24 8 17 8 17 12 0 3 -10 2 -21 -1 -24z m-2166 -24 c0
-5 -7 -9 -15 -9 -15 0 -20 12 -9 23 8 8 24 -1 24 -14z m2260 -49 c0 -5 -4 -10
-9 -10 -6 0 -13 5 -16 10 -3 6 1 10 9 10 9 0 16 -4 16 -10z m-2177 -6 c10 -10
-12 -44 -28 -44 -16 0 -18 9 -9 34 6 16 25 21 37 10z m2244 -10 c-3 -3 -12 -4
-19 -1 -8 3 -5 6 6 6 11 1 17 -2 13 -5z m63 -19 c0 -8 -7 -15 -15 -15 -8 0
-15 7 -15 15 0 8 7 15 15 15 8 0 15 -7 15 -15z m152 -47 c-6 -6 -16 -7 -23 -3
-9 6 -7 12 7 22 21 15 34 -1 16 -19z m-2377 11 c8 -12 -22 -49 -39 -49 -6 0
-17 4 -25 9 -12 8 -12 12 -2 25 7 8 19 12 27 9 8 -3 14 0 14 6 0 14 17 14 25
0z m275 -3 c0 -3 -4 -8 -10 -11 -5 -3 -10 -1 -10 4 0 6 5 11 10 11 6 0 10 -2
10 -4z m90 -31 c-7 -8 -16 -15 -21 -15 -13 0 -11 24 3 38 18 18 35 -3 18 -23z
m-543 2 c-6 -20 -27 -19 -27 2 0 14 5 19 15 14 9 -3 14 -10 12 -16z m2638 13
c3 -5 -1 -10 -10 -10 -9 0 -13 5 -10 10 3 6 8 10 10 10 2 0 7 -4 10 -10z m145
-9 c0 -14 -18 -23 -30 -16 -6 4 -8 11 -5 16 8 12 35 12 35 0z m-740 -27 c0 -8
-4 -12 -10 -9 -5 3 -10 10 -10 16 0 5 5 9 10 9 6 0 10 -7 10 -16z m-1810 -24
c0 -5 -7 -10 -16 -10 -8 0 -12 5 -9 10 3 6 10 10 16 10 5 0 9 -4 9 -10z m1988
-8 c2 -7 -3 -12 -12 -12 -9 0 -16 7 -16 16 0 17 22 14 28 -4z m246 -1 c6 -10
-44 -22 -58 -14 -11 7 14 23 36 23 9 0 19 -4 22 -9z m-1906 -24 c2 -10 -3 -17
-12 -17 -10 0 -16 9 -16 21 0 24 23 21 28 -4z m1992 8 c0 -8 -9 -15 -20 -15
-11 0 -20 7 -20 15 0 8 9 15 20 15 11 0 20 -7 20 -15z m-1910 -85 c0 -5 -2
-10 -4 -10 -3 0 -8 5 -11 10 -3 6 -1 10 4 10 6 0 11 -4 11 -10z m1558 -62 c6
-6 33 -13 59 -14 86 -6 108 -11 108 -25 0 -14 -15 -15 -120 -8 -16 1 -37 7
-45 15 -8 7 -27 16 -43 19 -15 4 -30 11 -33 16 -8 13 60 11 74 -3z m352 -59
c0 -12 -37 -12 -44 0 -7 11 14 20 32 13 6 -2 12 -8 12 -13z m-122 0 c-2 -6 -8
-10 -13 -10 -5 0 -11 4 -13 10 -2 6 4 11 13 11 9 0 15 -5 13 -11z m182 -8 c0
-12 -20 -25 -27 -18 -7 7 6 27 18 27 5 0 9 -4 9 -9z m65 -22 c-8 -12 -52 -12
-60 0 -3 6 2 14 12 20 20 11 57 -4 48 -20z m-175 -109 c0 -5 -5 -10 -11 -10
-5 0 -7 5 -4 10 3 6 8 10 11 10 2 0 4 -4 4 -10z m-270 -130 c0 -5 -4 -10 -10
-10 -5 0 -10 5 -10 10 0 6 5 10 10 10 6 0 10 -4 10 -10z m-5060 -125 c0 -8 -7
-15 -15 -15 -16 0 -20 12 -8 23 11 12 23 8 23 -8z m5 -35 c3 -5 -1 -10 -9 -10
-9 0 -16 5 -16 10 0 6 4 10 9 10 6 0 13 -4 16 -10z m-15 -50 c0 -11 -7 -20
-15 -20 -18 0 -19 12 -3 28 16 16 18 15 18 -8z m60 -65 c-18 -21 -40 -19 -40
4 0 13 8 21 23 23 26 4 33 -7 17 -27z m-130 5 c0 -5 -4 -10 -10 -10 -5 0 -10
5 -10 10 0 6 5 10 10 10 6 0 10 -4 10 -10z"/>
<path d="M0 4790 c0 -2960 3 -4450 10 -4450 7 0 10 1490 10 4450 0 2960 -3
4450 -10 4450 -7 0 -10 -1490 -10 -4450z"/>
<path d="M8469 9135 c-3 -2 -45 -11 -95 -19 -165 -26 -272 -66 -411 -152 -68
-42 -123 -94 -123 -115 0 -17 61 -47 123 -59 79 -15 94 -26 70 -52 -17 -19
-17 -21 9 -42 29 -22 85 -41 153 -51 72 -11 85 -15 85 -29 0 -20 -55 -66 -176
-146 -238 -159 -304 -225 -304 -305 0 -30 35 -55 77 -55 28 0 33 -4 33 -23 0
-41 21 -57 93 -69 51 -8 67 -15 67 -27 0 -10 -5 -22 -10 -27 -45 -45 158 -95
260 -65 15 5 41 2 66 -7 40 -15 43 -14 88 12 25 15 46 23 46 17 0 -5 -45 -57
-99 -115 -126 -134 -137 -165 -58 -166 40 0 33 -16 -20 -42 -49 -25 -90 -69
-79 -86 3 -6 45 -22 94 -37 48 -15 191 -78 317 -140 127 -62 241 -116 255
-120 14 -4 39 -13 55 -20 125 -55 481 -125 558 -111 48 9 70 38 107 141 18 50
53 133 79 185 39 80 60 109 136 186 50 50 127 117 173 149 46 32 88 68 92 81
6 14 21 26 37 30 145 33 237 76 346 163 146 117 187 207 187 406 0 129 -15
170 -70 197 -46 24 -74 23 -275 -8 -252 -39 -270 -39 -339 -14 -45 17 -79 42
-150 109 -104 99 -178 156 -256 197 -54 28 -58 29 -250 32 -209 3 -259 11
-348 60 -244 132 -274 142 -428 142 -61 0 -113 -2 -115 -5z m591 -436 c0 -5
-5 -9 -10 -9 -17 0 -60 32 -55 40 6 10 65 -18 65 -31z m-63 -40 c7 -7 25 -13
40 -14 58 -4 59 -5 38 -21 -31 -24 -105 -1 -105 32 0 17 12 18 27 3z m195 -6
c25 -23 24 -47 -1 -33 -11 5 -29 10 -40 10 -26 0 -27 15 -3 29 23 14 23 14 44
-6z m126 -25 c-19 -11 -46 -10 -54 3 -11 18 17 28 43 16 17 -8 20 -13 11 -19z
m237 12 c3 -5 -3 -10 -14 -10 -11 0 -23 5 -26 10 -3 6 3 10 14 10 11 0 23 -4
26 -10z m-749 -149 c-4 -6 -15 -11 -25 -11 -9 0 -21 -4 -26 -9 -17 -15 -98
-25 -93 -11 5 17 81 42 88 29 4 -5 15 -1 25 11 19 21 44 13 31 -9z m1810 3
c10 -40 -8 -95 -38 -117 -15 -11 -51 -24 -80 -27 -89 -12 -188 36 -188 91 0
24 20 29 115 29 75 0 87 3 112 25 38 33 71 33 79 -1z m-1676 1 c0 -16 -27 -32
-37 -21 -7 7 16 36 28 36 5 0 9 -7 9 -15z m-317 -41 c3 -4 2 -15 -4 -25 -10
-20 -39 -15 -39 6 0 18 31 31 43 19z m-98 -44 c3 -5 -1 -10 -9 -10 -9 0 -16 5
-16 10 0 6 4 10 9 10 6 0 13 -4 16 -10z m1145 -4 c0 -8 -4 -17 -9 -21 -12 -7
-24 12 -16 25 9 15 25 12 25 -4z m-220 -46 c0 -5 -7 -10 -15 -10 -8 0 -15 5
-15 10 0 6 7 10 15 10 8 0 15 -4 15 -10z m-556 -36 c6 -17 2 -26 -23 -56 -21
-25 -35 -23 -27 5 4 12 9 31 10 42 4 26 4 25 20 25 8 0 17 -7 20 -16z m296 6
c0 -5 -4 -10 -10 -10 -5 0 -10 5 -10 10 0 6 5 10 10 10 6 0 10 -4 10 -10z
m360 -31 c7 -11 9 -24 5 -27 -9 -9 -40 13 -43 32 -5 23 25 20 38 -5z m-590
-34 c0 -8 -7 -15 -15 -15 -8 0 -15 7 -15 15 0 8 7 15 15 15 8 0 15 -7 15 -15z
m500 -105 c0 -5 -4 -10 -10 -10 -5 0 -10 5 -10 10 0 6 5 10 10 10 6 0 10 -4
10 -10z m57 -28 c-10 -10 -17 -32 -17 -49 0 -34 -22 -58 -45 -49 -19 7 -20 36
0 36 10 0 15 10 15 28 0 33 16 52 44 52 18 0 18 -1 3 -18z m-93 2 c9 -3 16
-13 16 -21 0 -10 -6 -13 -16 -9 -9 3 -18 6 -20 6 -2 0 -4 7 -4 15 0 17 2 18
24 9z m-366 -21 c2 -8 -5 -13 -17 -13 -12 0 -21 6 -21 16 0 18 31 15 38 -3z
m148 -15 c-3 -7 -9 -21 -12 -30 -7 -19 -34 -25 -34 -7 0 20 21 49 36 49 9 0
13 -5 10 -12z m-206 -8 c0 -5 -4 -10 -9 -10 -6 0 -13 5 -16 10 -3 6 1 10 9 10
9 0 16 -4 16 -10z m320 -10 c0 -5 -7 -10 -15 -10 -8 0 -15 5 -15 10 0 6 7 10
15 10 8 0 15 -4 15 -10z m-544 -129 c-10 -16 -41 -14 -56 4 -7 8 -21 15 -31
15 -32 0 -31 20 3 35 32 13 34 13 62 -15 16 -15 25 -33 22 -39z m258 34 c3 -8
15 -15 26 -15 23 0 27 -18 5 -26 -26 -10 -65 5 -65 25 0 31 23 43 34 16z m444
-8 c3 -12 -4 -17 -22 -17 -28 0 -33 9 -14 28 15 15 32 10 36 -11z m-582 -11
c15 -12 17 -17 6 -28 -10 -10 -17 -9 -39 4 -15 9 -29 21 -31 27 -5 16 41 13
64 -3z m451 -36 c1 -14 5 -36 9 -49 6 -19 4 -22 -12 -19 -13 2 -20 13 -22 33
-2 17 -8 35 -13 41 -11 14 0 26 21 22 8 -2 16 -14 17 -28z m-70 -12 c6 -7 13
-23 16 -35 4 -19 1 -23 -17 -23 -13 0 -33 9 -46 20 -19 16 -21 22 -10 35 15
18 44 20 57 3z m-357 -17 c7 -14 7 -22 0 -26 -15 -9 -40 14 -33 31 7 20 20 18
33 -5z m620 4 c0 -8 -4 -15 -10 -15 -5 0 -10 7 -10 15 0 8 5 15 10 15 6 0 10
-7 10 -15z m-100 -5 c0 -5 -2 -10 -4 -10 -3 0 -8 5 -11 10 -3 6 -1 10 4 10 6
0 11 -4 11 -10z m-292 -12 c28 -28 13 -38 -53 -36 -36 1 -65 6 -65 10 0 29 94
50 118 26z m-293 -28 c3 -5 -3 -10 -15 -10 -12 0 -18 5 -15 10 3 6 10 10 15
10 5 0 12 -4 15 -10z m735 -39 c0 -15 -51 -43 -67 -37 -8 3 -21 -1 -29 -9 -16
-15 -47 -9 -41 8 2 7 17 14 33 18 16 3 39 11 49 17 24 14 55 15 55 3z"/>
<path d="M9586 6029 c-32 -25 -33 -55 -6 -134 27 -79 62 -136 106 -175 80 -70
135 -79 574 -89 184 -5 355 -13 380 -19 25 -7 83 -18 130 -27 47 -8 113 -21
148 -29 79 -17 118 -9 116 25 -1 13 -5 34 -9 47 -9 27 8 29 55 6 18 -10 49
-17 69 -18 44 -1 53 23 22 64 -28 38 -13 48 74 52 67 3 70 4 73 29 6 51 -103
130 -219 160 -67 17 -247 49 -309 54 -237 22 -296 23 -450 13 -176 -11 -154
-13 -495 42 -163 26 -225 26 -259 -1z m602 -184 c-8 -8 -48 8 -42 16 3 5 14 4
25 -2 12 -6 19 -12 17 -14z m-398 -45 c0 -5 -4 -10 -10 -10 -5 0 -10 5 -10 10
0 6 5 10 10 10 6 0 10 -4 10 -10z m398 0 c13 0 22 -6 22 -15 0 -25 -67 -20
-81 6 -10 20 -9 21 12 16 13 -4 34 -7 47 -7z m120 -2 c20 -20 13 -28 -20 -21
-40 7 -42 9 -33 22 8 15 38 14 53 -1z m92 -13 c0 -8 -6 -15 -14 -15 -7 0 -19
7 -26 15 -11 13 -8 15 14 15 16 0 26 -5 26 -15z"/>
<path d="M6284 5571 c-78 -28 -139 -67 -202 -130 -84 -84 -165 -150 -273 -223
-106 -72 -181 -105 -279 -120 -73 -12 -276 -4 -330 12 -19 6 -64 17 -100 24
-36 8 -119 26 -185 39 -288 61 -382 62 -496 4 -72 -35 -304 -199 -362 -254
-33 -33 -44 -68 -27 -89 11 -12 9 -20 -8 -42 -12 -15 -34 -44 -49 -66 -25 -35
-26 -39 -10 -51 9 -7 28 -10 41 -8 38 8 40 -14 6 -56 -42 -52 -39 -85 9 -89
19 -2 44 1 55 5 104 45 275 137 386 208 232 149 348 197 513 214 105 10 272
-3 362 -29 17 -5 89 -16 161 -24 112 -13 145 -13 227 -2 171 24 244 72 492
321 105 105 184 175 225 200 69 42 89 61 90 86 0 37 -96 89 -164 89 -17 -1
-54 -9 -82 -19z"/>
<path d="M4910 3799 c-99 -8 -196 -26 -335 -64 -78 -21 -324 -141 -409 -199
-37 -25 -73 -46 -81 -46 -7 0 -24 -12 -37 -27 -13 -16 -48 -46 -78 -69 -30
-23 -75 -65 -100 -93 -25 -29 -63 -71 -86 -94 -23 -23 -51 -62 -64 -87 -12
-25 -39 -68 -60 -95 -56 -75 -183 -309 -219 -402 -17 -45 -31 -102 -31 -125 0
-44 -4 -58 -39 -183 -13 -48 -21 -116 -25 -220 -3 -82 -11 -193 -17 -245 -11
-85 -10 -107 9 -205 34 -181 42 -218 52 -255 5 -19 21 -81 35 -138 27 -108 48
-166 97 -272 17 -36 39 -89 49 -119 24 -70 48 -107 128 -201 36 -42 83 -98
104 -124 21 -25 64 -63 95 -85 32 -21 83 -68 114 -103 59 -67 128 -111 225
-142 29 -10 69 -29 90 -43 42 -28 154 -74 193 -79 14 -1 57 -12 95 -24 158
-47 215 -53 557 -57 219 -3 334 0 347 7 11 5 55 13 98 16 88 6 266 39 331 60
114 37 350 181 441 268 172 166 421 516 421 592 0 11 -14 30 -31 43 -47 35
-256 160 -344 206 -44 23 -99 52 -123 65 -24 12 -62 25 -86 27 -40 5 -46 2
-112 -52 -38 -32 -105 -93 -149 -136 -44 -43 -107 -94 -139 -113 -65 -39 -191
-83 -276 -97 -220 -36 -559 -50 -688 -29 -142 23 -340 143 -453 273 -109 126
-131 186 -89 239 25 32 76 45 230 59 68 6 128 13 132 15 4 3 101 12 215 21
115 8 224 17 243 19 35 4 360 23 500 29 172 8 588 50 710 71 14 2 90 9 170 14
217 16 260 35 281 127 26 115 2 576 -37 712 -14 47 -30 121 -35 164 -6 44 -16
92 -23 106 -8 14 -17 41 -21 60 -4 18 -17 50 -28 70 -43 74 -187 278 -227 321
-23 25 -57 69 -76 98 -19 28 -38 52 -43 52 -5 0 -47 37 -93 83 -47 45 -109 95
-139 111 -30 16 -67 41 -84 55 -16 15 -48 33 -70 40 -22 8 -56 24 -75 36 -19
12 -69 34 -110 48 -41 14 -96 35 -121 46 -61 27 -215 57 -359 70 -128 12 -196
12 -350 0z m670 -350 c28 -18 19 -43 -12 -33 -19 6 -44 11 -59 13 -4 1 -9 10
-12 20 -4 17 0 19 27 18 18 -1 43 -9 56 -18z m-340 -13 c0 -8 -4 -17 -9 -21
-12 -7 -24 12 -16 25 9 15 25 12 25 -4z m-880 -48 c0 -10 -7 -18 -15 -18 -17
0 -39 46 -29 61 9 14 44 -20 44 -43z m410 21 c0 -5 -7 -9 -15 -9 -15 0 -20 12
-9 23 8 8 24 -1 24 -14z m908 -44 c3 -14 0 -15 -15 -6 -34 20 -53 38 -53 51 0
17 64 -25 68 -45z m-1383 -60 c0 -10 -5 -20 -11 -22 -13 -4 -27 24 -18 38 9
15 29 4 29 -16z m-75 -5 c0 -5 -4 -10 -10 -10 -5 0 -10 5 -10 10 0 6 5 10 10
10 6 0 10 -4 10 -10z m1400 -30 c0 -36 -18 -39 -48 -7 -26 27 -20 37 20 37 24
0 28 -4 28 -30z m-1510 -130 c0 -5 -7 -10 -15 -10 -8 0 -15 5 -15 10 0 6 7 10
15 10 8 0 15 -4 15 -10z m1165 -231 c94 -11 200 -41 270 -75 75 -36 205 -121
246 -160 63 -62 191 -320 176 -357 -6 -16 -10 -17 -317 -37 -146 -10 -431 -22
-845 -34 -71 -2 -213 -11 -315 -20 -230 -20 -216 -20 -240 4 -26 26 -25 53 6
163 19 65 38 108 67 147 51 71 115 138 147 155 14 7 57 39 95 69 39 31 88 62
110 68 22 6 72 22 110 36 156 58 274 68 490 41z m715 -95 c0 -16 -16 -19 -25
-4 -8 13 4 32 16 25 5 -4 9 -13 9 -21z m310 10 c0 -17 -22 -14 -28 4 -2 7 3
12 12 12 9 0 16 -7 16 -16z m-62 -144 c-1 -22 3 -45 10 -52 8 -8 9 -15 1 -25
-15 -18 -44 -16 -60 3 -10 13 -10 21 3 47 9 18 19 40 22 50 10 33 27 18 24
-23z m-2270 9 c-2 -6 -8 -10 -13 -10 -5 0 -11 4 -13 10 -2 6 4 11 13 11 9 0
15 -5 13 -11z m2112 -3 c0 -3 -4 -8 -10 -11 -5 -3 -10 -1 -10 4 0 6 5 11 10
11 6 0 10 -2 10 -4z m-2152 -104 c2 -12 -1 -22 -7 -22 -6 0 -11 -10 -11 -21 0
-18 -2 -19 -15 -9 -11 9 -13 16 -5 24 5 5 10 21 10 34 0 30 24 24 28 -6z
m2392 -34 c0 -7 -5 -20 -10 -28 -9 -13 -11 -13 -19 0 -6 9 -6 19 1 27 13 17
28 17 28 1z m-2444 -44 c20 -5 21 -11 18 -71 -2 -36 -6 -74 -9 -84 -10 -29
-34 -23 -34 9 0 15 -3 55 -7 90 -7 63 -5 66 32 56z m-56 -129 c0 -8 -4 -15
-10 -15 -5 0 -10 7 -10 15 0 8 5 15 10 15 6 0 10 -7 10 -15z m42 -125 c3 -21
-1 -25 -22 -22 -38 4 -45 18 -25 48 14 22 19 24 31 13 7 -8 15 -25 16 -39z
m-302 -46 c0 -8 -5 -12 -10 -9 -6 4 -8 11 -5 16 9 14 15 11 15 -7z m220 -6 c0
-25 -27 -58 -47 -58 -19 0 -16 17 8 51 24 34 39 37 39 7z m2650 -4 c0 -8 -7
-14 -15 -14 -15 0 -21 21 -9 33 10 9 24 -2 24 -19z m51 -37 c-1 -12 -15 -9
-19 4 -3 6 1 10 8 8 6 -3 11 -8 11 -12z m-2816 -7 c-3 -5 -11 -10 -16 -10 -6
0 -7 5 -4 10 3 6 11 10 16 10 6 0 7 -4 4 -10z m129 -15 c3 -9 -1 -35 -9 -60
-9 -24 -14 -50 -13 -57 2 -7 -6 -13 -17 -13 -25 0 -32 37 -10 55 8 7 15 23 15
35 0 47 21 72 34 40z m2405 -141 c-14 -18 -24 -11 -15 11 3 9 11 13 16 10 8
-5 7 -11 -1 -21z m-1401 -10 c29 -19 28 -38 -2 -52 -20 -9 -27 -8 -37 4 -11
14 -14 13 -21 -5 -4 -13 -16 -21 -31 -21 -13 0 -27 -4 -32 -9 -6 -6 -26 -6
-45 -2 -26 5 -38 3 -47 -8 -10 -14 -13 -14 -32 3 -23 20 -28 46 -10 46 6 0 9
7 5 15 -4 12 3 15 37 15 23 0 49 4 56 9 9 6 22 6 32 0 12 -6 19 -5 22 4 7 18
77 19 105 1z m-1047 -14 c22 -12 26 -40 6 -40 -13 0 -57 35 -57 45 0 9 31 5
51 -5z m706 -1 c29 1 53 -1 53 -4 0 -14 -31 -65 -40 -65 -6 0 -10 9 -10 20 0
24 -27 27 -55 6 -16 -12 -17 -16 -6 -30 12 -14 9 -18 -24 -32 -21 -8 -44 -13
-51 -10 -20 8 -17 34 6 48 18 11 18 14 3 30 -14 16 -13 18 18 31 19 8 38 12
43 9 5 -3 33 -4 63 -3z m-664 -101 c7 -60 -3 -80 -23 -44 -7 14 -26 30 -41 35
-32 11 -42 46 -10 36 10 -3 24 1 31 10 23 28 37 17 43 -37z m450 24 c3 -4 -5
-20 -17 -35 -19 -23 -25 -26 -34 -14 -9 11 -7 18 9 35 21 23 34 27 42 14z
m657 4 c0 -3 -4 -8 -10 -11 -5 -3 -10 -1 -10 4 0 6 5 11 10 11 6 0 10 -2 10
-4z m-912 -43 c-4 -22 -22 -20 -26 1 -2 10 3 16 13 16 10 0 15 -7 13 -17z
m-250 -46 c2 -10 -3 -17 -12 -17 -18 0 -29 16 -21 31 9 14 29 6 33 -14z m-248
3 c0 -5 -4 -10 -10 -10 -5 0 -10 5 -10 10 0 6 5 10 10 10 6 0 10 -4 10 -10z
m208 -60 c3 -21 2 -22 -12 -11 -19 16 -21 44 -3 39 6 -3 14 -15 15 -28z m98
-31 c16 -17 16 -22 4 -29 -18 -12 -30 -13 -30 -2 0 4 -3 17 -6 30 -8 28 7 28
32 1z m-208 -6 c-2 -10 -11 -19 -21 -21 -16 -3 -17 -1 -7 17 13 25 33 28 28 4z
m2662 -23 c0 -5 -4 -10 -10 -10 -5 0 -10 5 -10 10 0 6 5 10 10 10 6 0 10 -4
10 -10z m-2235 -50 c19 -21 13 -42 -7 -22 -7 7 -20 12 -30 12 -18 0 -24 11
-11 23 12 12 30 7 48 -13z m-365 -36 c0 -8 -4 -12 -10 -9 -5 3 -10 10 -10 16
0 5 5 9 10 9 6 0 10 -7 10 -16z m290 -434 c0 -19 -20 -27 -33 -13 -8 7 11 33
24 33 5 0 9 -9 9 -20z m216 -91 c3 -6 1 -16 -4 -21 -13 -13 -45 8 -36 23 7 12
31 11 40 -2z m-186 -30 c0 -18 -2 -19 -15 -9 -15 12 -12 30 6 30 5 0 9 -10 9
-21z m57 -34 c3 -9 3 -18 0 -21 -9 -9 -48 16 -42 27 9 14 35 11 42 -6z m68
-90 c0 -16 -8 -21 -37 -23 -22 -2 -38 1 -38 7 0 6 9 11 20 11 12 0 20 7 20 16
0 9 7 14 18 12 9 -2 17 -12 17 -23z m45 -185 c0 -5 -4 -10 -10 -10 -5 0 -10 5
-10 10 0 6 5 10 10 10 6 0 10 -4 10 -10z m280 -114 c0 -8 -8 -16 -17 -18 -14
-4 -18 2 -19 23 -1 24 1 27 17 18 11 -5 19 -16 19 -23z m165 -20 c31 -16 22
-26 -18 -19 -27 5 -33 13 -20 26 8 9 6 9 38 -7z m-75 -45 c24 -7 24 -8 5 -18
-24 -13 -70 -6 -86 13 -9 12 -5 14 22 13 19 -1 45 -4 59 -8z m196 -31 c21 0
17 -28 -6 -40 -15 -8 -21 -6 -30 9 -15 28 -12 44 6 37 9 -3 22 -6 30 -6z"/>
<path d="M936 3733 c-2 -3 -348 -15 -371 -13 -5 0 -93 3 -193 6 -133 5 -187 3
-195 -5 -16 -16 -34 -396 -26 -543 4 -62 3 -270 -2 -463 -11 -447 -13 -1139
-4 -1275 5 -81 3 -121 -9 -173 -9 -38 -16 -103 -16 -145 0 -42 -5 -104 -10
-137 -7 -42 -6 -92 2 -165 7 -65 10 -236 9 -446 -2 -271 0 -343 10 -350 7 -4
124 -9 259 -11 301 -3 758 -6 823 -6 26 1 77 1 115 0 37 0 112 5 168 11 55 6
150 12 210 13 121 2 270 21 354 45 124 36 217 68 255 87 74 36 229 159 313
246 73 76 90 102 152 226 115 233 130 291 129 477 -1 141 -4 156 -64 322 -59
164 -99 228 -195 315 -127 114 -160 147 -160 160 0 7 19 33 43 59 62 68 127
149 127 157 0 5 11 23 25 41 13 18 36 66 49 107 13 41 34 93 45 115 18 35 21
60 22 203 1 90 1 190 1 223 -2 146 -89 294 -282 482 -140 137 -271 222 -490
319 -47 21 -92 44 -101 51 -9 8 -53 19 -99 25 -46 5 -86 12 -89 14 -3 2 -85 4
-181 6 -96 2 -197 6 -225 10 -52 8 -393 18 -399 12z m-26 -348 c0 -8 -9 -15
-20 -15 -11 0 -29 -9 -40 -20 -17 -17 -21 -18 -26 -6 -3 8 -1 24 6 35 13 26
80 31 80 6z m164 -36 c16 -15 -3 -23 -31 -13 -39 13 -44 39 -7 30 16 -4 33
-12 38 -17z m301 1 c3 -5 1 -10 -4 -10 -6 0 -11 5 -11 10 0 6 2 10 4 10 3 0 8
-4 11 -10z m-87 -28 c2 -7 -3 -12 -12 -12 -9 0 -16 7 -16 16 0 17 22 14 28 -4z
m182 4 c0 -16 -28 -41 -37 -33 -3 4 -12 2 -20 -5 -24 -19 -25 -2 -1 26 25 28
58 35 58 12z m77 -8 c-3 -8 -6 -5 -6 6 -1 11 2 17 5 13 3 -3 4 -12 1 -19z
m660 -20 c-3 -8 -6 -5 -6 6 -1 11 2 17 5 13 3 -3 4 -12 1 -19z m-1178 -1 c8
-11 5 -19 -14 -37 -24 -23 -25 -23 -45 -5 -25 23 -21 37 11 46 35 10 36 10 48
-4z m614 -21 c7 -18 -1 -26 -25 -26 -11 0 -18 7 -18 20 0 23 35 28 43 6z m92
-57 c0 -8 -10 -15 -23 -17 -21 -3 -22 -1 -12 18 12 23 35 22 35 -1z m63 -25
c12 -4 22 -13 22 -21 0 -10 -6 -13 -16 -9 -9 3 -19 6 -24 6 -4 0 -10 7 -14 15
-6 16 -2 18 32 9z m94 -41 c22 -20 23 -33 3 -33 -12 0 -35 28 -35 44 0 11 13
6 32 -11z m-1353 -17 c9 -10 9 -16 1 -21 -16 -10 -40 2 -40 20 0 19 24 20 39
1z m945 -38 c-19 -33 -26 -38 -40 -27 -11 9 -11 15 -3 25 15 18 53 19 43 2z
m-714 -20 c0 -16 -3 -19 -11 -11 -6 6 -8 16 -5 22 11 17 16 13 16 -11z m810
-8 c0 -5 -4 -10 -9 -10 -6 0 -13 5 -16 10 -3 6 1 10 9 10 9 0 16 -4 16 -10z
m500 -100 c0 -11 -7 -20 -15 -20 -8 0 -15 9 -15 20 0 11 7 20 15 20 8 0 15 -9
15 -20z m185 -30 c3 -5 -1 -10 -9 -10 -9 0 -16 5 -16 10 0 6 4 10 9 10 6 0 13
-4 16 -10z m129 -20 c11 -11 -1 -30 -19 -30 -13 0 -35 29 -35 45 0 8 42 -4 54
-15z m-1004 -80 c368 -11 410 -22 463 -115 27 -48 28 -54 23 -155 -5 -116 -16
-158 -54 -208 -39 -54 -73 -68 -190 -81 -220 -24 -590 -40 -613 -26 -10 7 -19
447 -9 513 11 81 23 96 69 87 20 -3 160 -10 311 -15z m1088 -36 c-2 -32 -7
-40 -25 -42 -25 -4 -30 7 -11 26 10 10 10 17 0 32 -10 16 -9 21 6 29 24 14 34
0 30 -45z m-1998 -79 c0 -8 -4 -15 -10 -15 -5 0 -10 7 -10 15 0 8 5 15 10 15
6 0 10 -7 10 -15z m-17 -95 c-3 -11 -9 -20 -14 -20 -15 0 -21 21 -14 48 6 25
8 26 20 9 7 -10 11 -27 8 -37z m-23 -101 c0 -19 10 -43 25 -61 27 -31 32 -53
15 -63 -27 -17 -78 83 -66 130 9 35 26 31 26 -6z m38 -172 c4 -19 -32 -24 -57
-8 -11 7 -10 11 5 20 25 14 48 10 52 -12z m-21 -69 c-4 -23 1 -43 13 -63 11
-16 24 -38 30 -47 8 -13 4 -21 -19 -37 -63 -45 -93 -10 -66 75 9 30 14 61 11
70 -8 20 1 34 21 34 12 0 14 -7 10 -32z m133 -150 c0 -25 -4 -29 -22 -26 -20
3 -23 9 -23 50 l-1 48 23 -22 c14 -13 23 -33 23 -50z m1640 -2 c0 -3 -4 -8
-10 -11 -5 -3 -10 -1 -10 4 0 6 5 11 10 11 6 0 10 -2 10 -4z m-1734 -57 c9
-16 -21 -43 -40 -36 -9 4 -16 16 -16 27 0 15 7 20 24 20 14 0 28 -5 32 -11z
m64 -69 c0 -5 -8 -10 -17 -10 -15 0 -16 2 -3 10 19 12 20 12 20 0z m-87 -62
c-3 -35 -7 -65 -9 -67 -16 -18 -25 77 -12 112 16 37 26 15 21 -45z m207 -34
c0 -8 -5 -12 -10 -9 -6 4 -8 11 -5 16 9 14 15 11 15 -7z m70 -14 c0 -16 -4
-30 -10 -30 -5 0 -10 14 -10 30 0 17 5 30 10 30 6 0 10 -13 10 -30z m1443 13
c26 -7 17 -35 -15 -45 -24 -8 -32 -5 -58 20 -16 16 -26 32 -23 36 6 6 56 0 96
-11z m-1622 -34 c-2 -8 -6 -29 -9 -46 -7 -51 -32 -42 -32 10 0 24 3 47 7 51
12 12 38 1 34 -15z m559 -9 c0 -5 -5 -10 -11 -10 -5 0 -7 5 -4 10 3 6 8 10 11
10 2 0 4 -4 4 -10z m-574 -187 c4 -16 6 -32 5 -37 -1 -6 3 -21 10 -34 11 -19
11 -27 0 -44 -10 -17 -10 -22 6 -33 17 -13 17 -14 -1 -21 -27 -10 -70 19 -74
51 -3 21 0 26 15 23 13 -2 18 3 18 19 0 11 3 24 7 28 4 4 -2 19 -12 33 -25 31
-25 42 -1 42 12 0 22 -10 27 -27z m1864 -98 c0 -8 -4 -15 -10 -15 -5 0 -10 7
-10 15 0 8 5 15 10 15 6 0 10 -7 10 -15z m-595 -89 c35 -23 93 -113 111 -171
31 -106 13 -249 -43 -333 -42 -61 -74 -84 -149 -101 -27 -7 -69 -17 -94 -23
-29 -7 -150 -11 -340 -9 -266 1 -296 3 -308 19 -8 10 -10 27 -6 42 3 14 9 137
11 273 l5 249 33 13 c18 8 61 19 96 24 98 16 431 43 454 37 11 -3 45 -2 75 2
65 9 120 1 155 -22z m-1067 -9 c4 -31 -12 -36 -28 -8 -15 29 -12 43 8 39 10
-2 18 -14 20 -31z m1606 -12 c21 -22 2 -65 -25 -58 -22 6 -26 42 -7 61 15 15
14 15 32 -3z m-1860 -21 c4 -9 4 -19 2 -21 -8 -8 -26 8 -26 23 0 19 16 18 24
-2z m266 -78 c0 -41 -1 -43 -25 -38 -35 6 -38 16 -20 52 24 46 45 39 45 -14z
m-272 -3 c-4 -34 -28 -43 -28 -10 0 25 7 37 22 37 5 0 8 -12 6 -27z m37 -73
c9 -14 -17 -50 -36 -50 -27 0 -30 28 -6 45 25 17 34 19 42 5z m-46 -116 c-9
-11 -8 -14 5 -14 16 0 22 -21 9 -34 -5 -4 -8 -40 -8 -80 0 -78 -13 -106 -46
-106 -24 0 -24 1 2 61 20 47 21 50 4 75 -14 21 -15 31 -5 48 8 16 8 29 0 50
-8 21 -7 32 2 43 11 13 15 12 30 -7 14 -17 16 -26 7 -36z m-194 -3 c-7 -23
-25 -29 -25 -8 0 14 21 39 28 33 2 -3 1 -14 -3 -25z m445 -12 c0 -5 -7 -9 -15
-9 -15 0 -20 12 -9 23 8 8 24 -1 24 -14z m1560 -84 c0 -8 -7 -15 -15 -15 -16
0 -20 12 -8 23 11 12 23 8 23 -8z m-1555 -45 c-3 -5 -10 -10 -16 -10 -5 0 -9
5 -9 10 0 6 7 10 16 10 8 0 12 -4 9 -10z m-257 -122 c19 -19 14 -50 -14 -91
-29 -43 -44 -44 -56 -1 -11 41 0 84 25 94 30 12 31 12 45 -2z m-185 -45 c-3
-7 -9 -13 -14 -13 -11 0 -12 34 -2 43 9 10 22 -13 16 -30z m427 -23 c0 -5 -4
-10 -10 -10 -5 0 -10 5 -10 10 0 6 5 10 10 10 6 0 10 -4 10 -10z m-231 -174
c17 -21 -4 -30 -23 -10 -9 8 -16 17 -16 20 0 10 29 3 39 -10z m1291 4 c5 0 16
-7 25 -16 12 -12 13 -19 4 -30 -18 -21 -47 -17 -65 11 -17 27 -10 50 13 41 8
-3 18 -6 23 -6z m-1465 -50 c3 -5 -1 -10 -9 -10 -9 0 -16 5 -16 10 0 6 4 10 9
10 6 0 13 -4 16 -10z m1725 -16 c0 -8 -5 -12 -10 -9 -6 4 -8 11 -5 16 9 14 15
11 15 -7z m-1160 -67 c0 -36 -22 -58 -58 -59 -52 -2 -61 18 -18 36 20 8 39 22
42 31 9 24 34 18 34 -8z m-191 -28 c17 -6 31 -14 31 -18 0 -9 -38 -41 -50 -41
-14 0 -32 39 -26 56 6 17 5 17 45 3z m521 -20 c0 -28 -3 -31 -22 -25 -13 3
-26 6 -30 6 -17 0 -6 28 15 38 34 16 37 15 37 -19z m158 14 c2 -8 -6 -13 -22
-13 -26 0 -40 12 -29 24 11 11 46 2 51 -11z m192 7 c0 -5 7 -7 15 -4 8 4 15 1
15 -5 0 -6 -11 -11 -24 -11 -14 0 -28 -4 -31 -10 -3 -5 -10 -10 -16 -10 -13 0
-11 24 3 38 14 14 38 16 38 2z m210 -8 c0 -18 -36 -60 -44 -51 -2 2 -1 19 1
37 4 23 11 32 24 32 12 0 19 -7 19 -18z m-632 -9 c2 -8 -6 -13 -22 -13 -17 0
-26 5 -26 16 0 19 41 16 48 -3z m308 6 c3 -6 1 -16 -5 -22 -9 -9 -14 -8 -21 3
-9 15 -4 30 10 30 5 0 12 -5 16 -11z"/>
<path d="M8970 3710 c-14 -4 -48 -8 -75 -9 -102 -2 -256 -39 -370 -90 -60 -27
-125 -52 -144 -56 -18 -4 -57 -18 -86 -31 -75 -32 -358 -207 -430 -264 -144
-115 -288 -297 -384 -488 -46 -92 -67 -152 -101 -297 -16 -71 -36 -150 -44
-175 -8 -25 -24 -108 -37 -185 -36 -225 -30 -627 10 -726 5 -13 24 -71 42
-129 18 -59 43 -116 56 -131 13 -14 23 -37 23 -52 0 -46 49 -148 102 -212 27
-33 56 -68 63 -77 8 -10 29 -46 46 -80 21 -42 61 -94 120 -154 49 -50 89 -96
89 -101 0 -17 134 -119 240 -183 102 -62 280 -150 370 -183 171 -63 327 -82
670 -81 282 1 354 7 485 41 168 44 411 132 555 201 62 31 287 242 400 377 111
133 210 297 210 348 0 29 -86 113 -142 140 -19 9 -60 32 -92 51 -80 48 -166
79 -333 121 -112 28 -147 33 -168 25 -15 -6 -87 -71 -161 -144 -158 -160 -178
-175 -269 -210 -38 -16 -102 -44 -142 -63 l-71 -35 -254 4 c-146 3 -266 9
-283 15 -45 17 -163 50 -225 64 -38 8 -72 26 -111 56 -66 51 -204 200 -237
254 -37 61 -122 318 -128 384 -3 33 -12 115 -21 183 -15 120 -15 124 6 172 12
27 21 57 21 67 0 10 9 43 21 73 11 30 36 98 56 150 19 52 47 111 62 130 15 19
40 59 56 89 51 94 132 149 338 230 147 59 270 93 303 85 13 -3 54 -1 92 6 54
9 84 9 133 -1 35 -7 93 -13 129 -14 44 -1 93 -12 152 -33 102 -37 130 -50 218
-107 132 -84 189 -115 212 -115 28 0 44 10 170 112 54 43 139 106 190 140 99
65 248 201 248 227 0 37 -104 171 -202 260 -106 96 -168 134 -315 192 -43 16
-103 45 -133 63 -30 19 -75 38 -100 44 -25 6 -97 29 -161 51 -183 64 -240 74
-454 77 -104 1 -201 -1 -215 -6z m110 -325 c0 -8 -7 -15 -15 -15 -16 0 -20 12
-8 23 11 12 23 8 23 -8z m-32 -67 c-7 -19 -38 -22 -38 -4 0 10 9 16 21 16 12
0 19 -5 17 -12z m-324 -144 c12 -17 15 -29 8 -36 -14 -14 -47 -6 -47 12 0 8
-9 23 -20 32 -20 17 -19 17 10 17 21 0 36 -8 49 -25z m-324 -15 c0 -5 -7 -9
-15 -9 -15 0 -20 12 -9 23 8 8 24 -1 24 -14z m210 11 c0 -5 -5 -10 -11 -10 -5
0 -7 5 -4 10 3 6 8 10 11 10 2 0 4 -4 4 -10z m960 -14 c0 -3 -4 -8 -10 -11 -5
-3 -10 -1 -10 4 0 6 5 11 10 11 6 0 10 -2 10 -4z m-943 -58 c2 -36 -26 -44
-69 -21 -18 9 -38 16 -45 15 -6 -1 -14 2 -18 8 -4 6 8 10 32 10 21 0 45 5 53
10 24 16 44 7 47 -22z m397 -9 c-3 -5 -10 -7 -15 -3 -5 3 -7 10 -3 15 3 5 10
7 15 3 5 -3 7 -10 3 -15z m230 6 c3 -9 0 -15 -8 -15 -8 0 -16 7 -20 15 -3 9 0
15 8 15 8 0 16 -7 20 -15z m-807 -59 c-4 -9 -15 -16 -26 -16 -11 0 -25 -9 -32
-21 -7 -15 -14 -18 -21 -11 -24 24 52 94 76 72 5 -5 6 -16 3 -24z m-127 -20
c0 -3 -4 -8 -10 -11 -5 -3 -10 -1 -10 4 0 6 5 11 10 11 6 0 10 -2 10 -4z m620
-16 c0 -5 -4 -10 -9 -10 -6 0 -13 5 -16 10 -3 6 1 10 9 10 9 0 16 -4 16 -10z
m-668 -42 c-6 -41 -34 -82 -71 -104 -16 -9 -38 -37 -50 -62 l-22 -45 -48 6
c-47 6 -49 5 -54 -22 -4 -19 -19 -37 -42 -51 -34 -21 -37 -21 -55 -5 -28 26
-41 70 -26 91 12 16 14 16 39 -1 30 -19 87 -13 87 11 0 19 160 179 188 188 12
4 22 12 22 17 0 5 8 9 18 9 15 0 18 -6 14 -32z m152 -117 c3 -5 -1 -12 -10
-15 -20 -8 -29 -1 -19 13 8 13 22 14 29 2z m-202 -83 c-7 -7 -12 -8 -12 -2 0
14 12 26 19 19 2 -3 -1 -11 -7 -17z m-222 -124 c22 -9 40 -21 40 -28 0 -6 -11
-29 -23 -51 -27 -47 -53 -54 -49 -12 2 23 -1 27 -21 27 -30 0 -50 -21 -41 -44
3 -9 1 -16 -5 -16 -18 0 -32 39 -29 78 3 32 7 39 38 49 46 15 43 16 90 -3z
m-161 -184 c-13 -16 -26 -30 -31 -30 -15 0 -8 23 19 59 21 27 29 32 31 19 2
-9 -7 -31 -19 -48z m141 -16 c11 -13 9 -19 -14 -42 -22 -23 -28 -25 -36 -12
-30 47 16 96 50 54z m-178 -30 c11 -11 -18 -99 -34 -102 -13 -3 -15 5 -12 39
5 52 27 83 46 63z m9 -389 c-1 -15 -24 -12 -29 3 -3 9 2 13 12 10 10 -1 17 -7
17 -13z m39 -495 c0 -5 -4 -10 -10 -10 -5 0 -10 5 -10 10 0 6 5 10 10 10 6 0
10 -4 10 -10z m48 -431 c2 -11 -8 -21 -29 -28 -41 -14 -45 -9 -23 24 18 28 47
30 52 4z m92 -64 c0 -9 -9 -15 -25 -15 -24 0 -32 10 -18 23 12 13 43 7 43 -8z
m0 -75 c0 -5 -4 -10 -10 -10 -5 0 -10 5 -10 10 0 6 5 10 10 10 6 0 10 -4 10
-10z m170 -105 c0 -8 -7 -15 -16 -15 -14 0 -14 3 -4 15 7 8 14 15 16 15 2 0 4
-7 4 -15z m473 -140 c1 -5 -6 -11 -15 -13 -11 -2 -18 3 -18 13 0 17 30 18 33
0z m1241 0 c-4 -8 -10 -15 -15 -15 -5 0 -9 7 -9 15 0 8 7 15 15 15 9 0 12 -6
9 -15z m-1119 -35 c3 -5 16 -10 28 -10 20 0 20 -1 4 -17 -13 -13 -19 -14 -29
-5 -7 7 -22 12 -35 12 -23 0 -30 10 -16 23 10 10 41 8 48 -3z m225 -35 c13
-16 11 -18 -45 -30 -16 -3 -48 -10 -70 -15 -47 -10 -59 -2 -49 34 6 25 9 26
79 26 52 0 76 -4 85 -15z m120 -35 c0 -35 -19 -47 -49 -30 -27 14 -27 34 2 48
37 18 47 14 47 -18z m560 -23 c0 -17 -38 -52 -47 -44 -10 11 15 57 32 57 8 0
15 -6 15 -13z m-698 -19 c-12 -12 -35 -1 -27 12 3 5 13 6 21 3 10 -4 12 -9 6
-15z m578 2 c0 -6 -11 -16 -25 -22 -16 -7 -25 -19 -25 -33 0 -25 -24 -50 -39
-41 -6 4 -8 13 -4 22 3 8 -3 24 -13 35 -21 23 -12 36 31 42 56 8 75 7 75 -3z
m-271 -14 c15 -8 38 -12 49 -9 24 6 29 -11 12 -37 -8 -13 -15 -12 -52 8 -24
12 -55 22 -70 22 -27 0 -35 9 -21 23 11 12 53 8 82 -7z m-70 -53 c1 -20 -33
-15 -63 8 -30 24 -33 36 -8 41 20 5 71 -31 71 -49z m211 29 c0 -21 -34 -56
-49 -51 -15 6 16 69 34 69 8 0 15 -8 15 -18z m140 -26 c0 -16 -18 -31 -27 -22
-8 8 5 36 17 36 5 0 10 -6 10 -14z m60 -31 c0 -16 -27 -32 -37 -21 -7 7 16 36
28 36 5 0 9 -7 9 -15z m-210 -11 c0 -8 -4 -12 -10 -9 -5 3 -10 10 -10 16 0 5
5 9 10 9 6 0 10 -7 10 -16z m360 -39 c0 -8 -4 -15 -9 -15 -13 0 -22 16 -14 24
11 11 23 6 23 -9z m-613 -121 c-3 -3 -12 -4 -19 -1 -8 3 -5 6 6 6 11 1 17 -2
13 -5z m413 -64 c0 -5 -4 -10 -9 -10 -6 0 -13 5 -16 10 -3 6 1 10 9 10 9 0 16
-4 16 -10z"/>
<path d="M12680 3704 c-36 -7 -94 -12 -130 -13 -98 -2 -190 -29 -356 -106 -28
-13 -77 -34 -110 -46 -97 -36 -262 -151 -394 -273 -41 -38 -106 -94 -143 -124
-92 -72 -151 -156 -245 -343 -58 -114 -80 -168 -84 -206 -3 -32 -20 -82 -46
-134 -65 -131 -73 -196 -79 -607 -5 -341 -5 -354 17 -425 47 -155 59 -204 65
-257 3 -30 13 -73 22 -95 44 -108 77 -173 102 -200 15 -16 39 -45 52 -64 13
-19 41 -57 61 -85 20 -28 48 -68 62 -88 39 -57 191 -177 333 -263 134 -82 192
-120 281 -185 30 -21 83 -47 120 -58 72 -22 200 -45 242 -44 25 0 212 -36 330
-64 38 -9 134 -18 230 -21 157 -5 169 -4 250 20 47 15 125 31 174 37 49 6 96
15 105 19 9 4 38 13 65 20 64 16 106 38 191 101 39 29 84 58 100 66 75 33 204
148 307 274 39 47 108 124 154 173 46 48 84 92 84 97 0 5 26 48 59 97 84 125
119 194 132 255 6 29 20 67 30 84 18 30 19 61 19 657 l0 625 -30 60 c-16 34
-30 64 -30 67 0 3 -11 31 -25 61 -14 30 -37 82 -51 117 -14 34 -36 73 -49 87
-12 14 -45 58 -73 99 -57 85 -222 241 -293 276 -26 14 -76 49 -112 79 -35 30
-93 69 -128 86 -35 16 -75 42 -90 56 -29 27 -116 64 -153 64 -13 0 -54 11 -90
25 -37 14 -82 28 -99 30 -18 3 -59 12 -92 21 -71 18 -69 17 -210 44 -125 23
-360 25 -475 4z m180 -99 c0 -15 -22 -25 -56 -25 -31 0 -32 28 -2 39 28 10 58
3 58 -14z m935 -215 c8 -13 -4 -50 -16 -50 -13 0 -22 27 -15 45 6 17 22 20 31
5z m-85 -9 c0 -6 -4 -13 -10 -16 -5 -3 -10 1 -10 9 0 9 5 16 10 16 6 0 10 -4
10 -9z m-1195 -132 c16 -30 16 -30 -6 -27 -30 4 -49 35 -29 48 20 13 17 14 35
-21z m-135 8 c0 -28 -32 -58 -58 -55 -38 4 -34 30 8 50 42 21 50 22 50 5z
m414 7 c20 -8 21 -34 2 -34 -17 0 -38 24 -29 33 8 8 8 8 27 1z m-214 -14 c0
-12 -28 -25 -36 -17 -9 9 6 27 22 27 8 0 14 -5 14 -10z m1440 -6 c0 -14 -3
-14 -15 -4 -8 7 -15 14 -15 16 0 2 7 4 15 4 8 0 15 -7 15 -16z m-1382 -12 c2
-7 -3 -12 -12 -12 -9 0 -16 7 -16 16 0 17 22 14 28 -4z m257 -1 c0 -8 -8 -19
-18 -25 -22 -14 -42 11 -25 32 14 16 43 12 43 -7z m-835 -5 c0 -2 -7 -9 -15
-16 -12 -10 -15 -10 -15 4 0 9 7 16 15 16 8 0 15 -2 15 -4z m1254 -17 c-3 -5
-10 -7 -15 -3 -5 3 -7 10 -3 15 3 5 10 7 15 3 5 -3 7 -10 3 -15z m-1316 -14
c3 -23 -51 -70 -68 -60 -14 9 -13 16 10 53 23 37 53 40 58 7z m1622 11 c0 -8
-4 -18 -10 -21 -5 -3 -10 3 -10 14 0 12 5 21 10 21 6 0 10 -6 10 -14z m-607
-32 c3 -4 2 -15 -4 -25 -11 -21 -49 -26 -49 -6 0 26 37 47 53 31z m-463 -63
c0 -14 -18 -23 -30 -16 -6 4 -8 11 -5 16 8 12 35 12 35 0z m280 -11 c0 -5 -4
-10 -9 -10 -6 0 -13 5 -16 10 -3 6 1 10 9 10 9 0 16 -4 16 -10z m-230 -10 c0
-5 -4 -10 -10 -10 -5 0 -10 5 -10 10 0 6 5 10 10 10 6 0 10 -4 10 -10z m-425
-49 c-9 -16 -25 -3 -18 15 4 10 9 12 15 6 6 -6 7 -15 3 -21z m635 -21 c0 -34
-28 -90 -44 -90 -22 0 -21 68 1 92 21 24 43 23 43 -2z m-767 -65 c-1 -5 -8
-14 -17 -20 -18 -11 -42 7 -31 25 8 13 51 9 48 -5z m-268 -5 c7 -12 -12 -50
-25 -50 -11 0 -14 43 -3 53 9 10 21 9 28 -3z m1993 -11 c12 -19 11 -20 -10
-17 -12 2 -24 11 -26 21 -5 24 20 21 36 -4z m50 -16 c-5 -25 -28 -28 -28 -4 0
12 6 21 16 21 9 0 14 -7 12 -17z m10 -79 c2 -10 8 -29 14 -42 9 -17 9 -25 0
-34 -19 -19 -33 3 -40 57 -4 38 -2 47 9 43 8 -3 15 -13 17 -24z m-748 -28 c54
-16 110 -26 153 -26 56 0 84 -7 155 -37 77 -33 96 -47 170 -122 108 -111 163
-182 211 -273 47 -87 66 -157 81 -298 6 -58 15 -119 21 -137 6 -18 12 -81 14
-140 3 -87 0 -119 -16 -165 -36 -108 -128 -283 -204 -392 -71 -99 -82 -110
-134 -132 -58 -25 -86 -40 -157 -80 -39 -23 -161 -62 -274 -89 -30 -7 -73 -18
-95 -24 -50 -13 -214 -13 -275 -1 -25 6 -79 16 -121 24 -124 24 -185 45 -249
88 -57 38 -82 63 -195 198 -59 70 -112 173 -140 275 -13 44 -35 109 -50 144
-59 140 -50 399 19 551 14 30 32 86 41 123 9 38 28 87 42 110 33 53 152 187
166 187 11 0 89 61 122 95 76 78 139 103 300 115 66 6 140 17 165 25 58 19
140 13 250 -19z m996 -31 c-6 -31 -4 -36 23 -49 37 -20 46 -33 32 -50 -19 -23
-56 3 -81 56 -18 39 -20 51 -10 63 7 8 19 15 27 15 12 0 14 -8 9 -35z m-2365
-51 c11 -14 10 -18 -6 -30 -27 -20 -55 -18 -55 4 0 38 38 54 61 26z m2187 4
c-6 -17 -36 -34 -44 -25 -4 4 1 14 12 22 23 18 37 19 32 3z m319 -84 c-3 -3
-12 -4 -19 -1 -8 3 -5 6 6 6 11 1 17 -2 13 -5z m-2537 -18 c0 -7 -7 -19 -15
-26 -12 -10 -15 -9 -15 7 0 11 3 23 7 26 11 12 23 8 23 -7z m2495 -6 c3 -5 2
-10 -4 -10 -5 0 -13 5 -16 10 -3 6 -2 10 4 10 5 0 13 -4 16 -10z m-2605 -30
c0 -5 -4 -10 -10 -10 -5 0 -10 5 -10 10 0 6 5 10 10 10 6 0 10 -4 10 -10z
m2715 -71 c13 -29 22 -55 20 -59 -6 -9 -53 -1 -60 11 -3 4 0 17 6 28 10 15 9
22 -4 36 -17 16 -15 35 4 35 5 0 20 -23 34 -51z m-2747 -12 c2 -12 -1 -15 -12
-11 -19 7 -22 38 -3 32 6 -3 13 -12 15 -21z m3012 -37 c0 -5 -4 -10 -10 -10
-5 0 -10 5 -10 10 0 6 5 10 10 10 6 0 10 -4 10 -10z m-3085 -88 c0 -18 -20
-15 -23 4 -3 10 1 15 10 12 7 -3 13 -10 13 -16z m75 -92 c0 -5 -5 -10 -11 -10
-5 0 -7 5 -4 10 3 6 8 10 11 10 2 0 4 -4 4 -10z m2673 -11 c32 -17 38 -31 20
-51 -29 -32 -55 -19 -68 35 -8 31 9 36 48 16z m23 -136 c-10 -10 -19 5 -10 18
6 11 8 11 12 0 2 -7 1 -15 -2 -18z m217 -17 c7 -19 -18 -42 -28 -26 -8 13 1
40 14 40 5 0 11 -6 14 -14z m-3080 -62 c-9 -23 -33 -16 -33 9 0 13 3 27 7 31
11 10 33 -23 26 -40z m2962 -13 c3 -5 1 -12 -5 -16 -5 -3 -10 1 -10 9 0 18 6
21 15 7z m-2 -46 c11 -8 17 -23 15 -37 -2 -19 -8 -22 -33 -20 -16 2 -30 4 -31
5 -1 1 1 17 3 35 6 35 18 39 46 17z m-2813 -80 c11 -29 -5 -75 -27 -75 -15 0
-16 9 -4 29 6 9 5 21 -2 33 -10 15 -9 21 3 28 20 13 19 13 30 -15z m125 -85
c0 -16 -8 -28 -22 -35 -14 -6 -23 -19 -23 -31 0 -21 -24 -39 -39 -30 -12 8 -6
50 14 89 16 31 24 37 45 35 19 -2 25 -9 25 -28z m233 2 c2 -7 -6 -12 -17 -12
-21 0 -27 11 -14 24 9 9 26 2 31 -12z m-382 -56 c3 -8 -2 -27 -12 -43 -10 -15
-19 -29 -20 -31 -1 -2 -13 0 -28 4 -34 8 -33 24 4 49 16 11 30 23 30 28 0 13
20 8 26 -7z m2743 -182 l24 -25 -24 -25 c-43 -42 -82 -8 -54 47 19 35 23 36
54 3z m-21 -106 c8 -8 9 -15 0 -25 -9 -11 -14 -11 -29 3 -11 10 -19 21 -19 26
0 12 34 10 48 -4z m67 -138 c3 -5 -1 -10 -9 -10 -9 0 -16 5 -16 10 0 6 4 10 9
10 6 0 13 -4 16 -10z m-2667 -42 c19 -19 14 -28 -13 -28 -24 0 -34 18 -18 33
9 10 17 9 31 -5z m96 -104 c7 -19 -1 -34 -19 -34 -18 0 -28 17 -21 35 7 20 32
19 40 -1z m2316 -283 c-7 -19 -20 -31 -31 -31 -30 0 -31 16 -3 50 33 39 54 27
34 -19z m-1990 0 c0 -12 -26 -32 -33 -25 -9 10 4 34 19 34 8 0 14 -4 14 -9z"/>
</g>
</svg>
