<svg width="140" height="46" viewBox="0 0 140 46" fill="none" xmlns="http://www.w3.org/2000/svg">
<g clip-path="url(#clip0_693_9913)">
<path d="M17.2414 0.00488281H18.4864C22.8086 0.0985262 27.0602 1.83093 30.1139 4.89775C28.9864 6.04488 27.8354 7.14519 26.7314 8.29233C25.0166 6.74721 22.9495 5.55326 20.6945 5.13186C17.3589 4.42953 13.7649 5.06163 10.9696 6.95791C7.91594 8.94783 5.84882 12.319 5.40251 15.9243C4.90923 19.4827 5.91929 23.2285 8.2448 25.9909C10.4763 28.6832 13.8824 30.3688 17.4059 30.4858C20.6945 30.6731 24.124 29.6664 26.52 27.3722C28.3992 25.7568 29.2683 23.2987 29.5502 20.9108C25.6508 20.9108 21.7515 20.9342 17.8522 20.9108V16.0881H34.2716C35.1173 21.2619 33.8958 27.0912 29.9495 30.7902C27.3186 33.4122 23.6777 34.9573 19.9663 35.2616C16.3723 35.6128 12.6609 34.9339 9.46627 33.2015C5.63741 31.1647 2.58372 27.7233 1.08037 23.6733C-0.32903 19.9509 -0.35252 15.737 0.962916 11.9912C2.1609 8.57326 4.46292 5.55326 7.42265 3.44628C10.2649 1.36271 13.7179 0.215581 17.2414 0.00488281Z" fill="#3C84FC"/>
<path d="M111.436 1.22144H116.463V34.6521C114.795 34.6521 113.104 34.6756 111.436 34.6287C111.46 23.5086 111.436 12.365 111.436 1.22144V1.22144Z" fill="#5CBC5D"/>
<path d="M45.4531 12.8097C48.5537 12.2245 51.9128 12.88 54.4732 14.7294C56.7987 16.3682 58.4195 18.9434 58.9128 21.7527C59.547 25.0068 58.7484 28.5652 56.6343 31.1404C54.3557 34.0199 50.6208 35.5651 46.9799 35.331C43.6443 35.1437 40.4027 33.4815 38.4296 30.7658C36.198 27.7693 35.6577 23.6489 36.8792 20.1373C38.1007 16.3682 41.5537 13.4886 45.4531 12.8097V12.8097ZM46.1578 17.2578C44.8893 17.5855 43.7148 18.3113 42.8692 19.3413C40.5906 22.057 40.7316 26.4817 43.245 29.01C44.6779 30.4615 46.839 31.1404 48.8356 30.7424C50.6913 30.4147 52.3121 29.1739 53.2047 27.5351C54.7551 24.7493 54.3088 20.9099 51.9363 18.7327C50.4094 17.328 48.1779 16.7427 46.1578 17.2578Z" fill="#F73B25"/>
<path d="M70.3524 12.8097C73.8994 12.1308 77.7752 13.1141 80.4296 15.5956C84.7517 19.4584 85.2215 26.6924 81.5336 31.1404C79.3021 33.9497 75.6846 35.4948 72.1141 35.331C68.7081 35.2373 65.349 33.5517 63.3289 30.7659C61.0504 27.699 60.5571 23.4851 61.849 19.9032C63.141 16.2511 66.5235 13.4652 70.3524 12.8097V12.8097ZM71.0571 17.2578C69.7886 17.5855 68.6141 18.3113 67.7685 19.318C65.5135 21.9868 65.6074 26.3412 68.0269 28.893C69.4598 30.4147 71.6913 31.1638 73.7584 30.7424C75.5907 30.3913 77.235 29.1739 78.1276 27.5352C79.6544 24.7259 79.2081 20.8865 76.8121 18.7093C75.2853 17.3046 73.0537 16.7428 71.0571 17.2578Z" fill="#FBBC2E"/>
<path d="M91.4699 14.1676C94.1712 12.482 97.7652 12.0138 100.678 13.4652C101.594 13.8632 102.346 14.5421 103.074 15.2211C103.097 14.589 103.074 13.9335 103.097 13.2779C104.671 13.3014 106.245 13.2779 107.842 13.3014V33.9497C107.819 37.0634 107.02 40.3643 104.765 42.6352C102.299 45.1401 98.5169 45.9127 95.1108 45.3976C91.4699 44.8592 88.2987 42.2138 86.8893 38.866C88.2987 38.1871 89.7786 37.6487 91.235 37.0166C92.0571 38.9363 93.7249 40.575 95.8155 40.9496C97.9061 41.3242 100.326 40.8091 101.688 39.0767C103.144 37.2975 103.144 34.8628 103.074 32.6856C101.993 33.739 100.748 34.6755 99.245 35.0266C95.9799 35.9397 92.386 34.8159 89.8726 32.6153C87.3356 30.4147 85.8323 27.0201 85.9732 23.649C86.0437 19.833 88.2048 16.1575 91.4699 14.1676V14.1676ZM96.3323 17.1642C94.8994 17.3983 93.5605 18.1942 92.6444 19.2945C90.4363 21.9166 90.4363 26.1071 92.6679 28.6823C93.9363 30.204 95.9799 31.0468 97.9531 30.8361C99.8088 30.6488 101.524 29.4783 102.44 27.8629C103.99 25.1238 103.732 21.4015 101.641 19.0136C100.349 17.5387 98.282 16.813 96.3323 17.1642V17.1642Z" fill="#3C84FC"/>
<path d="M122.5 15.3615C125.319 12.7395 129.664 11.8499 133.282 13.2311C136.711 14.5187 138.896 17.7728 140 21.1205C134.903 23.2275 129.829 25.3111 124.732 27.4181C125.436 28.7525 126.517 29.9699 127.973 30.4615C130.017 31.1872 132.46 30.9297 134.175 29.5719C134.856 29.0568 135.396 28.3779 135.913 27.7224C137.205 28.5886 138.497 29.4314 139.789 30.2976C137.956 33.0367 134.879 34.9564 131.567 35.2607C127.903 35.7055 124.003 34.3009 121.631 31.4447C117.732 26.9499 118.107 19.4116 122.5 15.3615V15.3615ZM125.013 19.6925C124.215 20.8396 123.886 22.2443 123.909 23.6255C127.315 22.2209 130.722 20.8162 134.128 19.3881C133.564 18.0771 132.201 17.2812 130.815 17.0705C128.584 16.6725 126.258 17.8664 125.013 19.6925V19.6925Z" fill="#F73B25"/>
</g>
<defs>
<clipPath id="clip0_693_9913">
<rect width="140" height="45.5422" fill="white"/>
</clipPath>
</defs>
</svg>
