<svg xmlns="http://www.w3.org/2000/svg" xmlns:xlink="http://www.w3.org/1999/xlink" width="60" zoomAndPan="magnify" viewBox="0 0 375 374.999991" height="60" preserveAspectRatio="xMidYMid meet" version="1.0"><defs><clipPath id="5d34900692"><path d="M 19.261719 65 L 65 65 L 65 324 L 19.261719 324 Z M 19.261719 65 " clip-rule="nonzero"/></clipPath></defs><path fill="#000000" d="M 189.5625 72.855469 C 120.335938 72.855469 64.222656 128.972656 64.222656 198.195312 C 64.222656 267.421875 120.335938 323.539062 189.5625 323.539062 C 258.789062 323.539062 314.90625 267.421875 314.90625 198.195312 C 314.90625 128.972656 258.777344 72.855469 189.5625 72.855469 Z M 189.5625 297.550781 C 134.691406 297.550781 90.199219 253.058594 90.199219 198.183594 C 90.199219 143.3125 134.691406 98.820312 189.5625 98.820312 C 244.4375 98.820312 288.929688 143.3125 288.929688 198.183594 C 288.929688 253.058594 244.4375 297.550781 189.5625 297.550781 Z M 189.5625 297.550781 " fill-opacity="1" fill-rule="nonzero"/><path fill="#000000" d="M 277.316406 198.183594 C 277.316406 199.621094 277.28125 201.054688 277.210938 202.492188 C 277.140625 203.925781 277.035156 205.355469 276.894531 206.785156 C 276.753906 208.214844 276.578125 209.640625 276.367188 211.0625 C 276.15625 212.480469 275.910156 213.894531 275.628906 215.304688 C 275.351562 216.710938 275.035156 218.113281 274.6875 219.507812 C 274.335938 220.898438 273.953125 222.285156 273.539062 223.65625 C 273.121094 225.03125 272.671875 226.394531 272.1875 227.746094 C 271.703125 229.101562 271.1875 230.4375 270.636719 231.765625 C 270.085938 233.09375 269.503906 234.40625 268.890625 235.703125 C 268.277344 237.003906 267.632812 238.285156 266.953125 239.550781 C 266.277344 240.816406 265.570312 242.066406 264.832031 243.296875 C 264.09375 244.53125 263.324219 245.742188 262.527344 246.9375 C 261.730469 248.132812 260.902344 249.304688 260.046875 250.460938 C 259.191406 251.613281 258.308594 252.746094 257.398438 253.855469 C 256.484375 254.964844 255.546875 256.050781 254.582031 257.117188 C 253.621094 258.179688 252.628906 259.21875 251.613281 260.234375 C 250.597656 261.25 249.558594 262.242188 248.496094 263.207031 C 247.429688 264.167969 246.34375 265.109375 245.234375 266.019531 C 244.121094 266.929688 242.992188 267.8125 241.835938 268.667969 C 240.683594 269.523438 239.511719 270.351562 238.316406 271.148438 C 237.121094 271.945312 235.910156 272.714844 234.675781 273.453125 C 233.445312 274.191406 232.195312 274.898438 230.929688 275.574219 C 229.664062 276.253906 228.378906 276.898438 227.082031 277.511719 C 225.785156 278.125 224.472656 278.707031 223.144531 279.257812 C 221.816406 279.808594 220.476562 280.324219 219.125 280.808594 C 217.773438 281.292969 216.410156 281.742188 215.035156 282.160156 C 213.664062 282.574219 212.277344 282.960938 210.886719 283.308594 C 209.492188 283.65625 208.089844 283.972656 206.683594 284.25 C 205.273438 284.53125 203.859375 284.777344 202.4375 284.988281 C 201.019531 285.199219 199.59375 285.375 198.164062 285.515625 C 196.734375 285.65625 195.304688 285.761719 193.867188 285.832031 C 192.433594 285.902344 191 285.9375 189.5625 285.9375 C 188.125 285.9375 186.691406 285.902344 185.257812 285.832031 C 183.824219 285.761719 182.390625 285.65625 180.960938 285.515625 C 179.53125 285.375 178.109375 285.199219 176.6875 284.988281 C 175.265625 284.777344 173.851562 284.53125 172.441406 284.25 C 171.035156 283.972656 169.632812 283.65625 168.242188 283.308594 C 166.847656 282.960938 165.464844 282.574219 164.089844 282.160156 C 162.714844 281.742188 161.351562 281.292969 160 280.808594 C 158.648438 280.324219 157.308594 279.808594 155.980469 279.257812 C 154.65625 278.707031 153.34375 278.125 152.042969 277.511719 C 150.746094 276.898438 149.464844 276.253906 148.195312 275.574219 C 146.929688 274.898438 145.679688 274.191406 144.449219 273.453125 C 143.21875 272.714844 142.003906 271.945312 140.808594 271.148438 C 139.617188 270.351562 138.441406 269.523438 137.289062 268.667969 C 136.136719 267.8125 135.003906 266.929688 133.894531 266.019531 C 132.78125 265.109375 131.695312 264.167969 130.632812 263.207031 C 129.566406 262.242188 128.527344 261.25 127.511719 260.234375 C 126.496094 259.21875 125.507812 258.179688 124.542969 257.117188 C 123.578125 256.050781 122.640625 254.964844 121.730469 253.855469 C 120.816406 252.746094 119.933594 251.613281 119.078125 250.460938 C 118.222656 249.304688 117.398438 248.132812 116.597656 246.9375 C 115.800781 245.742188 115.03125 244.53125 114.292969 243.296875 C 113.554688 242.066406 112.847656 240.816406 112.171875 239.550781 C 111.496094 238.285156 110.847656 237.003906 110.234375 235.703125 C 109.621094 234.40625 109.039062 233.09375 108.488281 231.765625 C 107.941406 230.4375 107.421875 229.101562 106.9375 227.746094 C 106.457031 226.394531 106.003906 225.03125 105.589844 223.65625 C 105.171875 222.285156 104.789062 220.898438 104.441406 219.507812 C 104.089844 218.113281 103.777344 216.710938 103.496094 215.304688 C 103.214844 213.894531 102.96875 212.480469 102.757812 211.0625 C 102.546875 209.640625 102.371094 208.214844 102.230469 206.785156 C 102.089844 205.355469 101.984375 203.925781 101.914062 202.492188 C 101.84375 201.054688 101.808594 199.621094 101.808594 198.183594 C 101.808594 196.75 101.84375 195.3125 101.914062 193.878906 C 101.984375 192.445312 102.089844 191.011719 102.230469 189.582031 C 102.371094 188.152344 102.546875 186.730469 102.757812 185.308594 C 102.96875 183.886719 103.214844 182.472656 103.496094 181.066406 C 103.777344 179.65625 104.089844 178.253906 104.441406 176.863281 C 104.789062 175.46875 105.171875 174.085938 105.589844 172.710938 C 106.003906 171.335938 106.457031 169.972656 106.9375 168.621094 C 107.421875 167.269531 107.941406 165.929688 108.488281 164.601562 C 109.039062 163.277344 109.621094 161.964844 110.234375 160.664062 C 110.847656 159.367188 111.496094 158.085938 112.171875 156.816406 C 112.847656 155.550781 113.554688 154.300781 114.292969 153.070312 C 115.03125 151.839844 115.800781 150.625 116.597656 149.429688 C 117.398438 148.238281 118.222656 147.0625 119.078125 145.910156 C 119.933594 144.757812 120.816406 143.625 121.730469 142.515625 C 122.640625 141.402344 123.578125 140.316406 124.542969 139.253906 C 125.507812 138.1875 126.496094 137.148438 127.511719 136.132812 C 128.527344 135.117188 129.566406 134.128906 130.632812 133.164062 C 131.695312 132.199219 132.78125 131.261719 133.894531 130.351562 C 135.003906 129.4375 136.136719 128.554688 137.289062 127.699219 C 138.441406 126.84375 139.617188 126.019531 140.808594 125.21875 C 142.003906 124.421875 143.21875 123.652344 144.449219 122.914062 C 145.679688 122.175781 146.929688 121.46875 148.195312 120.792969 C 149.464844 120.117188 150.746094 119.46875 152.042969 118.855469 C 153.34375 118.242188 154.65625 117.660156 155.980469 117.109375 C 157.308594 116.5625 158.648438 116.042969 160 115.5625 C 161.351562 115.078125 162.714844 114.625 164.089844 114.210938 C 165.464844 113.792969 166.847656 113.410156 168.242188 113.0625 C 169.632812 112.710938 171.035156 112.398438 172.441406 112.117188 C 173.851562 111.835938 175.265625 111.589844 176.6875 111.382812 C 178.109375 111.171875 179.53125 110.996094 180.960938 110.855469 C 182.390625 110.714844 183.824219 110.605469 185.257812 110.535156 C 186.691406 110.464844 188.125 110.429688 189.5625 110.429688 C 191 110.429688 192.433594 110.464844 193.867188 110.535156 C 195.304688 110.605469 196.734375 110.714844 198.164062 110.855469 C 199.59375 110.996094 201.019531 111.171875 202.4375 111.382812 C 203.859375 111.589844 205.273438 111.835938 206.683594 112.117188 C 208.089844 112.398438 209.492188 112.710938 210.886719 113.0625 C 212.277344 113.410156 213.664062 113.792969 215.035156 114.210938 C 216.410156 114.625 217.773438 115.078125 219.125 115.5625 C 220.476562 116.042969 221.816406 116.5625 223.144531 117.109375 C 224.472656 117.660156 225.785156 118.242188 227.082031 118.855469 C 228.378906 119.46875 229.664062 120.117188 230.929688 120.792969 C 232.195312 121.46875 233.445312 122.175781 234.675781 122.914062 C 235.910156 123.652344 237.121094 124.421875 238.316406 125.21875 C 239.511719 126.019531 240.683594 126.84375 241.835938 127.699219 C 242.992188 128.554688 244.121094 129.4375 245.234375 130.351562 C 246.34375 131.261719 247.429688 132.199219 248.496094 133.164062 C 249.558594 134.128906 250.597656 135.117188 251.613281 136.132812 C 252.628906 137.148438 253.621094 138.1875 254.582031 139.253906 C 255.546875 140.316406 256.484375 141.402344 257.398438 142.515625 C 258.308594 143.625 259.191406 144.757812 260.046875 145.910156 C 260.902344 147.0625 261.730469 148.238281 262.527344 149.429688 C 263.324219 150.625 264.09375 151.839844 264.832031 153.070312 C 265.570312 154.300781 266.277344 155.550781 266.953125 156.816406 C 267.632812 158.085938 268.277344 159.367188 268.890625 160.664062 C 269.503906 161.964844 270.085938 163.277344 270.636719 164.601562 C 271.1875 165.929688 271.703125 167.269531 272.1875 168.621094 C 272.671875 169.972656 273.121094 171.335938 273.539062 172.710938 C 273.953125 174.085938 274.335938 175.46875 274.6875 176.863281 C 275.035156 178.253906 275.351562 179.65625 275.628906 181.066406 C 275.910156 182.472656 276.15625 183.886719 276.367188 185.308594 C 276.578125 186.730469 276.753906 188.152344 276.894531 189.582031 C 277.035156 191.011719 277.140625 192.445312 277.210938 193.878906 C 277.28125 195.3125 277.316406 196.75 277.316406 198.183594 Z M 277.316406 198.183594 " fill-opacity="1" fill-rule="nonzero"/><path fill="#000000" d="M 332 64.441406 C 316.3125 92.613281 316.683594 120.316406 328.253906 156.089844 C 328.253906 156.089844 333.433594 172.980469 329.601562 187.144531 C 328.625 190.746094 328.253906 194.492188 328.253906 198.222656 L 328.242188 314.171875 C 328.242188 319.628906 332.988281 324.046875 338.558594 323.476562 C 343.40625 322.980469 346.949219 318.601562 346.949219 313.730469 L 346.949219 220.644531 L 346.960938 191.304688 L 346.949219 64.453125 C 346.972656 64.441406 346.972656 37.550781 332 64.441406 Z M 332 64.441406 " fill-opacity="1" fill-rule="nonzero"/><g clip-path="url(#5d34900692)"><path fill="#000000" d="M 59.84375 65.597656 L 59.324219 65.597656 C 56.898438 65.597656 54.945312 115.9375 54.945312 115.9375 C 54.945312 118.046875 53.394531 119.835938 51.316406 120.140625 C 48.765625 120.507812 46.46875 118.527344 46.46875 115.9375 C 46.46875 115.9375 44.5 65.597656 42.089844 65.597656 L 41.503906 65.597656 C 39.082031 65.597656 37.128906 115.976562 37.128906 115.976562 C 37.128906 118.539062 34.855469 120.519531 32.316406 120.175781 L 31.796875 120.101562 C 29.703125 119.808594 28.128906 118.019531 28.128906 115.902344 C 28.128906 115.902344 26.164062 65.582031 23.75 65.582031 C 21.328125 65.582031 19.375 120.46875 19.375 120.46875 C 19.375 127.320312 20.882812 137.878906 28.320312 144.007812 C 32.75 147.664062 33.777344 151.648438 33.867188 153.3125 L 33.867188 314.148438 C 33.867188 319.289062 38.078125 323.5 43.21875 323.5 C 48.359375 323.5 52.570312 319.289062 52.570312 314.148438 L 52.570312 154.007812 L 52.585938 154.007812 C 52.558594 153.652344 52.585938 153.335938 52.570312 152.996094 L 52.570312 151.851562 C 52.785156 147.335938 54.640625 144.769531 56.65625 143.082031 C 64.273438 136.738281 64.273438 126.8125 64.273438 120.546875 C 64.222656 120.546875 62.265625 65.597656 59.84375 65.597656 Z M 59.84375 65.597656 " fill-opacity="1" fill-rule="nonzero"/></g></svg>