<svg width="237" height="113" viewBox="0 0 237 113" fill="none" xmlns="http://www.w3.org/2000/svg">
<path fill-rule="evenodd" clip-rule="evenodd" d="M193.872 39.6147C193.872 38.666 193.03 37.823 191.975 37.823H189.341C188.287 37.823 187.444 38.666 187.444 39.6147L187.549 67.8571C187.549 68.8055 188.287 69.6485 189.341 69.6485H191.975C193.03 69.6485 193.872 68.8055 193.872 67.8571V39.6147Z" fill="#1F529A"/>
<path fill-rule="evenodd" clip-rule="evenodd" d="M197.244 40.4577V41.7221C197.244 42.3545 197.666 42.776 198.298 42.776H216.845C217.689 42.776 218.427 42.0382 218.427 41.1952V38.9822C218.427 38.1391 217.689 37.2961 216.845 37.4014C216.845 37.4014 198.93 39.1928 198.298 39.2982C197.666 39.2982 197.244 39.8253 197.244 40.4577Z" fill="#1F529A"/>
<path fill-rule="evenodd" clip-rule="evenodd" d="M182.175 69.6485C177.537 69.6485 174.693 66.1709 174.693 62.2715V50.9958H173.323C172.69 50.9958 172.058 50.3636 172.058 49.7311V47.8341C172.058 47.0967 172.69 46.5698 173.323 46.5698H174.693V39.6147C174.693 38.666 175.43 37.823 176.484 37.823H179.118C180.067 37.823 180.805 38.666 180.805 39.6147V46.5698H184.915C185.652 46.5698 186.179 47.0967 186.179 47.8341V49.7311C186.179 50.3636 185.652 50.9958 184.915 50.9958H180.805V61.4287C180.805 63.4308 182.07 64.9064 184.283 64.9064H184.704C185.442 64.9064 186.073 65.4331 186.073 66.2766V68.2786C186.073 69.0163 185.442 69.6485 184.704 69.6485H182.175" fill="#1F529A"/>
<path fill-rule="evenodd" clip-rule="evenodd" d="M150.56 57.7403C150.56 51.7335 146.977 45.7267 138.862 45.7267C131.38 45.7267 127.271 51.6282 127.271 57.7403C127.271 64.2739 131.696 70.07 138.968 70.07C143.921 70.07 148.769 67.5408 149.717 63.2202C149.822 62.6934 149.401 61.8503 148.663 61.8503H145.08C144.448 61.8503 143.921 62.1665 143.605 62.6934C142.551 64.1686 141.075 64.9064 138.968 64.9064C135.806 64.9064 133.699 62.4825 133.488 59.7426H148.558C149.928 59.7426 150.56 59.0049 150.56 57.7403V57.7403ZM133.593 55.2111C133.804 52.5766 136.123 50.5742 138.862 50.5742C141.708 50.5742 144.026 52.5766 144.342 55.2111H133.593" fill="#1F529A"/>
<path fill-rule="evenodd" clip-rule="evenodd" d="M219.059 57.7403C219.059 51.7335 215.475 45.7267 207.361 45.7267C199.879 45.7267 195.769 51.6282 195.769 57.7403C195.769 64.2739 200.195 70.07 207.467 70.07C212.42 70.07 217.267 67.5408 218.216 63.2202C218.321 62.6934 217.899 61.8503 217.161 61.8503H213.579C212.947 61.8503 212.42 62.1665 212.103 62.6934C211.05 64.1686 209.574 64.9064 207.361 64.9064C204.305 64.9064 202.198 62.4825 201.987 59.7426H217.056C218.427 59.7426 219.059 59.0049 219.059 57.7403ZM202.092 55.2111C202.303 52.5766 204.621 50.5742 207.361 50.5742C210.207 50.5742 212.525 52.5766 212.736 55.2111H202.092Z" fill="#1F529A"/>
<path fill-rule="evenodd" clip-rule="evenodd" d="M169.634 38.1391H120.947C119.788 38.1391 118.945 39.0879 118.945 40.1412L119.05 59.3211C119.05 59.3211 108.618 40.3524 108.091 39.4038C107.564 38.4554 106.404 37.6124 104.929 37.6124H100.925C99.7655 37.6124 98.9227 38.561 98.9227 39.6147V67.6461C98.9227 68.8055 99.7655 69.6485 100.925 69.6485H103.454C104.613 69.6485 105.456 68.8055 105.456 67.6461L105.351 48.045C105.351 48.045 115.889 67.1193 116.416 67.8571C116.943 68.9108 117.997 69.6485 119.472 69.6485H123.16C124.32 69.6485 125.163 68.8055 125.163 67.6461V42.8813H169.634C170.372 42.8813 171.004 42.2492 171.004 41.5115V39.5091C171.004 38.7713 170.372 38.1391 169.634 38.1391Z" fill="#1F529A"/>
<path fill-rule="evenodd" clip-rule="evenodd" d="M161.73 50.3636C163.838 50.3636 165.419 51.1014 166.052 52.4713C166.262 53.1038 166.789 53.2088 167.526 53.2088H170.477C170.899 53.2088 171.531 52.7872 171.531 52.155C171.531 48.7828 167.421 45.7267 161.73 45.7267C155.829 45.7267 151.93 48.5719 151.93 52.9981C151.93 56.4757 154.67 58.4781 157.937 59.4264C159.518 59.7426 162.152 60.3748 163.417 60.7963C164.682 61.1126 165.946 61.5344 165.946 62.6934C165.946 64.5901 164.049 65.1172 161.836 65.1172C159.833 65.1172 157.831 64.2739 157.305 62.7987C156.988 61.9556 156.356 61.8503 155.513 61.8503H152.562C152.036 61.8503 151.403 62.3771 151.403 63.0096V63.4308C151.403 66.6978 155.829 70.07 161.941 70.07C166.157 70.07 172.163 68.2786 172.163 62.5881C172.163 59.2155 169.95 56.8972 166.262 55.9488C164.893 55.6326 161.52 54.6843 160.782 54.579C159.412 54.1574 158.148 53.7359 158.148 52.6819C158.148 50.8905 159.728 50.3636 161.73 50.3636" fill="#1F529A"/>
<path fill-rule="evenodd" clip-rule="evenodd" d="M53.6077 34.98C54.1092 34.98 54.5482 34.604 54.5482 34.1025C54.5482 33.601 54.1092 33.2245 53.6077 33.2245C53.1062 33.2245 52.7298 33.601 52.7298 34.1025C52.7298 34.604 53.1062 34.98 53.6077 34.98Z" fill="#1F529A"/>
<path fill-rule="evenodd" clip-rule="evenodd" d="M41.5073 33.4125C41.9463 33.4125 42.2599 33.0365 42.2599 32.6605C42.2599 32.2215 41.9463 31.908 41.5073 31.908C41.0684 31.908 40.755 32.2215 40.755 32.6605C40.755 33.0365 41.0684 33.4125 41.5073 33.4125Z" fill="#1F529A"/>
<path fill-rule="evenodd" clip-rule="evenodd" d="M32.4164 51.9708L32.0402 51.5948C33.1061 50.5913 34.1719 49.0868 34.36 48.2088C34.4853 47.3313 35.7393 47.5193 35.4885 48.3968C35.1749 49.5883 33.7956 50.9678 32.4164 51.9708" fill="#1F529A"/>
<path fill-rule="evenodd" clip-rule="evenodd" d="M24.7049 33.7265C22.8239 34.5415 22.5731 36.485 23.8899 37.6759C25.4571 39.0554 28.1531 37.864 27.9023 35.6695C30.034 35.795 31.4133 33.538 31.0998 32.0335C32.0402 31.2185 32.103 29.4631 30.9743 28.7731C29.7206 28.0211 28.5921 28.2716 27.8396 29.7136C25.896 29.5881 24.015 31.093 24.7049 33.7265L23.8271 33.35C22.6358 30.7795 24.7049 28.2091 27.2754 28.8361C27.8396 27.5821 29.7206 26.2651 31.8522 27.5196C33.4822 28.5226 33.8585 31.1555 32.103 32.4095C32.918 34.792 31.2251 36.7985 28.7173 36.5475C28.4039 39.6824 25.5199 40.0584 23.5765 38.6164C22.5105 37.7385 22.0716 36.61 21.8834 35.7325C21.6329 34.792 21.6329 33.977 20.7552 33.0365C20.0653 32.347 18.8115 32.347 18.8115 32.347C18.8115 30.0896 16.7424 28.0211 14.1093 29.0241C13.1688 28.2091 11.9775 28.1461 11.1625 29.1491C10.7238 29.7136 10.4101 31.2185 11.9149 31.908C11.8522 33.977 13.4196 35.2935 15.7395 35.1055C15.8019 36.1715 16.9932 37.2374 18.1219 37.3625L18.059 37.9269C16.9306 37.8014 16.3037 38.1774 15.5512 39.1179C12.8553 38.9929 10.9746 40.2464 11.0372 42.1899C9.1562 42.5034 8.78015 44.5098 9.84593 45.5758C10.9117 46.6413 12.4791 46.2028 13.0433 44.9488C14.9869 45.3248 16.6798 43.9458 16.7424 42.3784C18.4979 42.3784 19.3131 41.6259 19.6265 39.9959L20.2534 40.0584C20.4414 41.8139 19.6265 43.5069 17.4948 43.3189C17.4321 45.4503 15.4259 46.5788 13.4824 45.8888C12.6045 47.5823 10.5354 48.2088 8.8428 46.5788C7.14993 45.0113 7.77701 42.3154 9.97123 41.6259C9.97123 39.5569 11.5388 37.6134 14.4854 38.3659C14.4854 38.3659 14.8616 37.4254 15.8019 37.3625C15.1751 37.1119 14.7362 36.7985 14.6109 36.1085C12.3538 36.61 10.473 34.5415 10.9746 32.4725C8.9681 31.4065 8.90545 29.4001 9.90858 28.2091C10.9746 26.9551 12.7298 26.7041 14.2346 28.0211C16.9306 26.5786 19.8773 28.3971 19.6892 31.4065C21.57 31.281 22.6986 32.8485 22.4478 34.5415C22.7613 33.7885 23.1373 33.4755 23.8271 33.35L24.7049 33.7265" fill="#1F529A"/>
<path fill-rule="evenodd" clip-rule="evenodd" d="M29.2817 30.0896L29.7206 30.4031C28.8428 32.284 27.3381 34.165 26.0215 35.2935L25.5199 34.8545C26.4604 33.35 28.4039 30.8421 29.2817 30.0896" fill="#1F529A"/>
<path fill-rule="evenodd" clip-rule="evenodd" d="M16.3663 40.1214L16.6171 40.6229C15.5511 41.6884 13.5451 43.1934 12.4164 43.7574L12.0403 43.2559C13.0433 42.1274 15.0496 40.6854 16.3663 40.1214Z" fill="#1F529A"/>
<path fill-rule="evenodd" clip-rule="evenodd" d="M18.9368 34.7295L18.4353 35.3565C16.9932 34.416 14.1719 31.9081 13.5451 30.9676L13.9838 30.5286C15.3632 31.2186 17.9964 33.601 18.9368 34.7295" fill="#1F529A"/>
<path fill-rule="evenodd" clip-rule="evenodd" d="M16.3037 58.6791C16.4916 59.4941 16.3037 60.4346 17.056 61.3126C17.3066 61.6261 18.7487 63.5066 19.8145 64.4472C18.3724 65.0114 15.5511 66.2027 13.5451 66.4535C13.1061 66.5161 12.6672 66.7669 12.2909 67.0177C12.0403 67.4566 11.7895 68.2089 11.6641 69.0868C11.6014 69.7137 11.6014 70.4032 11.6014 71.0929C11.6014 71.7199 11.9148 73.7263 12.6045 75.0428C13.2941 76.3596 13.9838 76.9865 14.7988 77.3625C14.9869 77.2999 15.3632 77.2372 15.9274 77.2372C17.4321 77.1744 18.6232 78.0522 19.1876 78.7419C19.3756 79.0554 19.8145 79.118 20.3161 79.118C21.57 79.118 22.9492 78.6793 24.2033 78.1775C24.5168 77.9896 25.2691 77.4253 26.0215 76.861C26.8365 76.2341 31.0998 72.5976 32.9806 71.7199C33.9838 72.2215 35.6139 72.911 37.3066 72.911C37.3693 72.911 37.6827 72.9739 38.059 72.8484C38.5605 72.7231 39.2504 72.535 40.1281 72.3468C41.6326 72.0334 43.3881 71.7826 43.9525 71.7826C45.3317 71.8452 49.4068 71.9081 50.4103 71.9081C51.4133 71.9081 52.8552 71.8452 53.4197 71.7826C54.2972 71.4692 56.2412 70.9676 58.0591 70.1526C59.8771 69.3374 63.7016 66.6416 64.3286 66.0145C64.6421 65.7638 64.9556 65.4503 65.1436 65.1997C65.2065 65.074 65.269 65.0114 65.269 64.9487C65.269 64.8861 65.2065 62.2526 65.2065 62.2526C65.2065 62.2526 66.1465 61.2496 66.523 60.8736C66.523 60.8736 66.523 60.8111 66.523 60.7481C66.335 60.2466 66.2095 58.6166 66.272 56.9867L65.3945 56.5477C65.3315 58.5536 64.5796 60.3091 63.8896 61.4376C62.5106 61.6261 59.8146 62.4411 58.8741 63.5696L59.4381 63.6951C60.3161 63.1931 61.2566 62.8796 62.3851 62.8796C63.3256 62.8796 63.7646 63.1306 63.7646 63.3816C63.7646 63.5696 63.5761 64.0081 63.5136 64.1965C63.4511 64.3217 63.3881 64.5725 63.2001 64.6979C61.8836 66.14 60.4416 67.3313 58.6231 68.3344C57.4322 69.024 56.2412 69.4629 54.4857 70.0271C53.9212 70.1526 53.1687 70.3406 52.7297 70.5289C52.0402 70.5289 48.5293 70.4032 46.4604 70.4032C44.3915 70.4032 40.1281 70.7166 38.8113 71.0302C38.1845 71.2184 37.9963 71.4692 37.3066 71.4692C35.99 71.4692 34.2348 70.7795 33.1688 70.2779C32.9806 70.2779 32.6045 70.466 32.2284 70.654C31.4759 71.0303 29.7832 73.4128 28.7801 72.6604C28.2785 73.7263 26.0843 74.6665 25.3946 75.7323C25.457 75.2309 26.3349 71.5946 26.3977 70.8423C26.3977 70.7166 26.4604 70.5915 26.3349 70.466C25.5825 69.1495 23.3255 68.3344 22.0715 68.0836C21.7581 68.021 21.57 67.9582 21.3194 67.8954L19.3131 67.3313L17.4948 67.8954L19.6265 68.2716L16.9306 70.0898C17.4321 69.9018 20.3161 69.0868 20.5042 69.024C20.7552 68.9613 21.0686 68.8987 21.3821 69.024C21.8209 69.1495 22.8867 69.4002 23.5765 69.6508C23.9526 69.7763 24.5794 70.466 24.7676 70.8423C24.8302 71.0302 24.8302 71.3439 24.8929 72.096C24.8929 72.535 24.8302 73.2245 24.7049 73.7263C24.3913 75.0428 23.7644 76.046 23.5765 76.422C23.3255 76.9238 23.012 77.1118 22.6358 77.2372C22.0715 77.5506 21.3194 77.6759 20.5669 77.7388C20.0026 77.7388 19.6265 77.676 19.3756 77.3625C18.6859 76.3596 16.8679 75.4189 15.0496 75.7952C13.9211 75.1054 12.7927 72.911 12.7927 71.1557C12.7927 70.0898 13.2941 68.3971 13.6075 67.5819C15.4258 67.3313 19.125 65.9519 20.8803 65.1369C21.2566 65.1369 22.3223 64.7606 23.3255 64.7606C25.708 64.7606 28.0904 66.8296 29.5323 68.2716C29.7832 67.8954 30.222 67.2685 31.4759 67.2685C33.1688 67.2685 34.1719 68.836 34.6108 70.4032L35.4885 69.7763C35.3632 68.8987 34.8614 67.8954 34.1719 67.1432C33.6077 66.579 32.4792 66.0774 31.6014 66.0774C31.0372 66.0774 30.5356 66.2027 30.1593 66.2027C28.968 66.2027 28.4665 65.6385 27.5262 65.0114C26.5857 64.3846 24.7676 63.3816 23.451 63.3816C22.6358 63.3816 22.2597 63.6951 21.57 63.6951C20.5669 63.6951 20.1908 63.3186 19.7518 62.6921C19.501 62.4411 18.4979 61.5631 18.2473 61.1871C18.059 60.9361 17.8082 60.1211 17.6829 59.6826L16.3037 58.6791" fill="#1F529A"/>
<path fill-rule="evenodd" clip-rule="evenodd" d="M17.6829 59.6826C17.9964 59.9961 18.2473 60.3091 18.6232 60.6226C18.9995 60.8736 19.4384 61.1241 19.8145 61.3751C20.4414 61.6886 21.1311 62.0646 21.7581 62.3156C22.3852 62.4411 23.1373 62.5036 23.8271 62.5036C24.8302 62.5036 26.0215 62.3156 27.0244 62.8171C27.7143 63.0681 27.7143 63.8206 28.2786 64.0081C29.0935 64.3217 31.3506 64.3846 32.6045 64.3846C35.1124 64.3846 37.8084 64.0711 39.4384 63.6951L38.686 62.8171C37.5576 63.0051 34.2972 63.3816 32.7927 63.3816C30.7238 63.3816 28.7172 63.0051 28.7172 62.1901C28.7172 61.5631 29.3443 60.6856 30.5983 60.6856C31.9148 60.6856 33.9211 61.5006 34.2972 61.6261C34.6735 61.6886 34.799 61.6886 35.0497 61.5631L35.8021 61.1871C34.799 60.6856 31.2251 59.4941 29.9714 59.4941C29.407 59.4941 29.0307 59.5566 28.6546 60.0581C28.2159 60.6856 26.8991 61.2496 24.8929 61.2496C23.7644 61.2496 22.1344 60.9986 21.8209 60.8736C21.1937 60.6226 20.0026 59.9331 19.2503 59.3686C18.2473 58.6791 17.3695 57.8642 16.8053 56.9237C16.6171 56.6727 16.4916 56.3592 16.4916 56.0462C16.4916 55.7952 16.6171 55.6072 16.6171 55.4192C16.8053 55.6697 16.9932 55.8577 17.244 56.0462C18.3098 57.1117 19.8773 57.8642 21.5072 58.1776C22.0089 58.3031 22.3852 58.3657 22.8867 58.3657C23.5765 58.3657 24.2033 57.9897 24.6423 57.6132L23.9526 56.8612C23.7644 56.9237 23.3255 56.9237 23.0747 56.9237C20.6923 56.9237 17.6829 55.4192 16.9932 53.6007C16.9306 53.4127 16.8053 53.3502 16.9306 53.1617C16.9932 52.9737 17.056 52.6602 17.1187 52.3467C17.244 52.4722 17.5574 52.7232 17.8711 52.9737C18.7487 53.5382 20.4414 54.2907 20.8176 54.5412C21.6329 54.2907 22.2597 53.9772 22.7613 53.7262C23.263 53.4757 23.9526 53.2247 24.7049 53.2247C26.4604 53.2247 28.4665 54.2277 30.3475 55.1682L31.6014 54.6667C29.9085 53.4757 26.3349 51.8452 24.3288 51.8452C23.1373 51.8452 22.0089 52.7232 21.1937 52.7232C20.2534 52.7232 17.4948 51.3438 17.4948 50.2153C17.4948 49.3378 19.2503 48.8358 22.197 48.5223C21.6955 49.2123 21.1937 50.0273 20.7552 50.7793L21.5072 51.2183C26.0215 44.6353 30.7864 40.3719 34.7363 37.7385C36.1782 36.7985 36.4916 36.234 36.9932 35.231C38.2471 32.6605 39.4384 30.7796 41.4447 30.7796C42.385 30.7796 43.1375 31.2811 43.7017 31.908L45.1436 32.347L43.6391 33.35L45.1436 33.977C43.2002 34.5415 40.5042 36.485 39.3757 39.3064C37.3066 39.3689 36.3035 41.1244 35.6139 42.5034C35.1124 43.5069 34.4227 43.8829 33.2942 44.5728L24.7049 50.5913L25.896 50.7793L33.8585 45.4503C35.4258 44.3844 36.1782 43.5694 36.5543 42.8799C37.2442 41.3749 38.059 40.2464 39.6263 40.2464C40.3789 40.2464 41.1939 40.6229 41.8836 41.2494L43.2628 41.6884L41.7581 42.6289L43.012 43.3814C39.3757 44.5099 37.1187 47.1433 35.8021 52.1587L36.7426 52.3467C37.2442 50.7168 37.7456 49.2123 38.5605 47.8328C40.6923 47.8328 42.8239 47.7703 44.9555 47.7703C50.5358 47.7703 55.1752 48.0208 57.6827 48.7108L56.8052 47.2058C54.1092 46.7043 50.2218 46.5163 44.9555 46.5163C43.1375 46.5163 41.382 46.5788 39.5637 46.5788C40.755 45.3878 42.385 44.3219 44.9555 43.5694L43.1375 42.5664L45.1436 41.4379L42.385 40.4344C41.9462 39.9959 41.3192 39.5569 40.5668 39.3689C41.4447 36.673 44.4541 35.1055 47.338 34.0395L45.3317 33.2245L47.338 32.096L44.2033 31.093C43.3881 30.1526 42.6357 29.7136 41.382 29.7136C38.4979 29.7136 37.3066 32.2215 36.1155 34.416C35.5511 35.607 35.1749 36.1085 34.1093 36.7985C31.9148 38.2404 29.0307 40.4974 26.3349 43.3189C24.9557 42.3154 22.0089 39.3064 21.2566 37.676C20.9431 38.052 20.6295 38.9299 20.6295 38.9299C20.9431 39.2434 24.3288 42.6289 25.5825 44.1334C25.5199 44.1964 25.3946 44.3219 25.3317 44.4473C23.9526 44.6979 20.4414 45.0743 19.2503 44.8863L18.6232 46.0773C19.501 46.0148 22.9492 45.5758 24.4541 45.5128C24.015 46.0148 23.5765 46.5788 23.1373 47.1433C18.6232 47.6448 15.6766 48.5853 15.6766 50.2153C15.6766 50.4663 15.7395 50.7793 15.7395 51.0928C15.7395 51.7827 15.4885 52.0332 14.9869 52.3467C14.6735 52.5347 14.6735 52.7232 14.7988 52.9112C14.9243 53.0992 15.614 54.1027 15.614 54.2907C15.614 54.6667 15.3004 54.9802 15.0496 55.2932C14.7988 55.5442 14.7988 55.6072 14.9869 55.9207L16.3037 58.6791L17.6829 59.6826" fill="#1F529A"/>
<path fill-rule="evenodd" clip-rule="evenodd" d="M73.169 44.3219C72.918 44.5729 72.667 44.9489 72.4165 45.2624L71.7265 44.2589C74.1094 41.0614 80.5043 39.557 84.2658 39.2435V37.5505C83.7643 37.676 83.2628 37.864 82.7613 37.9895C82.1343 38.115 81.5073 38.303 81.0058 38.2405C80.4414 38.2405 80.0024 38.052 79.8144 37.7385C79.3129 37.049 79.8144 35.9835 81.4448 34.98L80.1279 33.8515C79.1249 35.168 78.1844 36.61 77.1814 37.4255C76.2409 38.2405 75.3004 38.6165 74.5479 38.052C74.1094 37.7385 73.9839 37.6135 73.9209 36.7985C73.9839 35.607 74.6734 33.7886 75.3004 32.5976L73.7959 32.4096C73.545 34.228 72.7925 35.7325 71.9775 36.9865C71.037 38.5535 69.783 39.6825 68.4665 40.5599L67.589 39.745C68.6545 39.118 69.9715 38.115 70.849 36.7355C71.915 35.1055 72.7925 33.0991 72.7925 31.3436L77.1814 31.7201C76.5544 32.5351 75.5514 34.353 75.1749 35.607C74.9869 36.2965 74.9869 36.861 75.2379 37.049C75.6764 37.3625 76.4914 36.7985 77.3064 35.9835C78.4354 34.7295 79.5639 32.9111 80.0024 32.2841L83.2628 34.9175C81.8208 35.6695 80.4414 36.5475 80.6923 37.049C80.9433 37.488 81.8833 37.3625 82.8863 37.049C83.7018 36.7985 84.5793 36.422 85.2693 35.9835V40.3094C83.7018 40.3094 81.0683 40.6229 78.5604 41.3749C79.1879 42.1899 80.8803 42.5034 81.9463 42.6919L81.4448 46.2029C78.6859 45.0114 76.5544 44.3844 73.169 44.3219L74.2969 43.3189C76.7424 43.3814 79.2504 44.1334 80.6298 44.8234L80.8178 43.5069C79.5639 43.3189 77.9964 42.6289 77.3064 41.8139C76.2409 42.1899 75.1749 42.6919 74.2969 43.3189L73.169 44.3219" fill="#1F529A"/>
<path fill-rule="evenodd" clip-rule="evenodd" d="M60.0026 55.4817L61.0056 53.2247C59.9401 51.9707 58.7487 50.4033 57.6827 48.7108L56.8052 47.2058C54.7362 43.3189 55.4887 41.4379 54.4227 39.6824C53.4822 38.3029 49.0933 39.1809 48.4038 39.3064L49.6578 37.2374L47.1499 37.4254L49.2818 34.9175C49.5323 34.5415 49.5953 34.2905 49.8458 33.4125C50.2218 32.0335 51.3508 29.7766 54.7362 29.7766C58.4352 29.7766 59.6266 32.786 61.1941 34.1025C63.0746 35.607 65.4571 37.676 67.589 39.7449L68.4665 40.5599C69.595 41.6884 70.661 42.8799 71.7265 44.2589L72.4164 45.2623C76.9304 51.7827 82.4478 64.2591 84.9557 69.9645C85.1437 70.5289 85.3317 71.0929 85.5197 71.5318C83.8273 70.5915 82.0088 69.4629 80.0653 68.1461L78.9994 67.394C78.3099 66.8924 77.6199 66.3908 76.9304 65.8892L75.8019 64.9487C75.1124 64.4472 74.4224 63.8831 73.7959 63.3186L76.0529 76.2967C76.1784 77.1118 76.8679 76.9865 77.3694 76.2967C77.8709 75.6072 78.1219 75.4189 77.8709 74.5412L75.8019 64.9487L76.9304 65.8892L78.9368 73.977C79.1248 74.7294 79.4383 74.98 80.3163 74.98C81.1938 75.0428 81.3193 74.7294 81.1938 74.1651L78.9994 67.394L80.0653 68.1461L82.1343 74.2278C82.6988 75.7952 82.1343 75.9833 81.1938 75.9833C80.3163 75.9833 79.4383 75.7323 78.9368 76.046C78.4354 76.422 77.8084 77.2999 76.9934 78.0522C76.3664 78.7419 75.3629 78.6164 75.1749 77.2999L72.667 62.3156C71.1 60.8736 69.5325 59.3686 68.153 57.8012C67.589 57.5507 66.8995 57.2372 66.272 56.9867L65.3946 56.5477C65.0181 56.3592 64.7676 56.2967 64.7051 56.2342C64.0151 57.0492 63.3256 57.9896 62.5731 58.6166C62.1971 58.9926 61.8836 59.1806 61.3196 59.1806C61.1311 59.1806 60.8806 59.1806 60.6921 59.0556C60.4416 58.9301 60.2536 58.6791 60.0026 58.3031C59.8146 58.0521 59.5636 57.6761 59.3131 57.2997C58.8116 56.4847 58.3097 55.4192 57.8082 54.6037C57.3067 53.6632 56.8052 52.9737 56.7422 52.8482C56.6797 52.6602 56.4292 52.4722 56.4292 52.4722C56.1157 52.8482 55.9272 53.6632 55.9272 54.1652L55.0497 53.8517C55.1122 53.2247 55.3632 52.4097 55.5512 52.0332C55.5512 51.7197 55.1752 51.2812 54.8617 51.2812C54.4227 51.2812 53.9837 51.7197 53.7957 52.5977L52.8552 53.0367C52.9182 51.5947 53.4197 50.0273 54.8617 50.0273C55.9902 50.0273 56.7422 50.9048 57.2442 51.7197C57.8082 52.5347 59.6266 54.9802 60.0026 55.4817L60.6921 56.3592C60.8176 56.9237 61.0686 57.2372 61.1941 57.4252C61.4446 57.8012 61.6951 57.8012 62.0716 57.4252C62.2596 57.2997 62.7611 56.8612 63.3256 56.2967C63.7646 55.8577 64.2031 55.2312 64.3916 54.9802C64.8931 55.1682 65.896 55.6697 66.6485 55.9832C63.3256 51.8452 60.0651 46.8298 58.6862 43.4439C58.1217 42.0019 59.2502 41.5634 59.7516 42.9424C61.2566 46.7043 65.5826 53.4127 68.78 56.9237C72.4164 60.9361 79.1248 66.8296 83.5138 69.1495C82.8863 67.8954 82.0713 66.14 81.0683 64.0711C75.7394 61.0616 70.41 55.5442 67.902 50.7793L68.968 50.9048C71.288 55.0427 76.8679 60.5601 80.1908 62.1276C77.1814 55.7327 73.2314 47.6448 70.222 44.1964C66.3975 39.8704 62.2596 36.485 60.2536 34.792C58.3097 33.0365 57.4947 30.905 54.7362 30.905C52.4163 30.905 51.1623 32.5975 50.7238 34.228C50.5983 34.604 50.5358 34.792 50.3473 35.1055L49.2188 36.422L51.6013 36.1715L50.2218 38.052C50.2218 38.052 53.9212 37.2374 55.2377 38.9929C56.6172 40.8734 55.7392 43.0054 58.0592 47.2058C59.0622 49.0243 61.5071 52.2842 62.3226 53.0367L60.6921 56.3592L60.0026 55.4817" fill="#1F529A"/>
<path fill-rule="evenodd" clip-rule="evenodd" d="M23.5136 56.0462L22.9492 55.6697C23.263 55.4192 23.8899 54.9802 24.5168 54.7292C24.8302 54.6037 25.2064 54.5412 25.457 54.5412C26.0843 54.5412 26.6485 54.7922 27.1501 55.1057C27.9649 55.5442 28.9054 56.0462 29.658 56.0462C29.9085 56.0462 30.1593 55.9832 30.4728 55.9832C31.2251 55.9832 31.9148 56.2967 32.2911 56.2967C32.5419 56.2967 32.6672 56.1087 32.8553 55.8577C33.2314 55.2932 33.7956 54.8547 34.4853 54.6037C35.1749 54.2907 36.1155 54.1652 37.0558 54.1652C37.871 54.1652 38.5606 54.2907 38.9368 54.3532C38.9368 54.3532 38.3724 55.0427 38.2471 55.2312C37.4321 55.2312 35.99 55.1682 35.0497 55.5442C34.4227 55.7952 34.2348 56.1712 34.2348 56.6102C34.2348 57.2997 35.0497 57.6132 35.8647 57.8642C36.429 57.9897 36.9932 58.0522 37.4321 58.0522C38.059 58.0522 39.1876 57.8012 40.3162 57.5507C41.6955 57.2997 42.9494 56.9237 43.3257 56.7982L43.827 57.6762C42.3223 58.1777 40.755 58.6791 39.3129 58.9301C38.4979 59.1181 37.7456 59.2431 37.0558 59.2431C35.8647 59.2431 34.6108 58.7421 33.6077 58.2402C32.7298 57.8642 31.9777 57.4252 31.2251 57.4252C30.4728 57.4252 29.7206 57.6762 29.0307 58.1152C28.6546 58.3032 27.5888 59.0556 26.6485 59.4316C25.896 59.6826 25.3317 59.8706 24.5794 59.8706C23.9526 59.8706 23.5136 59.7451 23.2002 59.4941L24.3288 58.8046C24.5168 58.9301 24.7676 58.9926 24.8929 58.9926C25.081 58.9926 25.2691 58.9301 25.708 58.7421C25.9586 58.6791 26.3349 58.4282 26.5857 58.3032C27.0244 57.9897 27.1501 57.8012 27.3381 57.6762C27.7143 57.4252 27.8396 57.0492 27.4007 56.6727C27.1501 56.4847 26.962 56.2967 26.7112 56.1087C26.2723 55.8577 26.0215 55.6697 25.2691 55.6697C24.4541 55.6697 23.8271 55.8577 23.5136 56.0462" fill="#1F529A"/>
<path fill-rule="evenodd" clip-rule="evenodd" d="M39.4384 56.4847C39.4384 56.4847 38.7487 56.2967 38.5606 56.2967C38.9995 55.6697 39.6263 55.1682 40.0654 54.8547C41.0058 54.2277 41.9463 53.8517 43.451 53.7887C43.827 53.7262 44.6421 53.6632 45.0812 53.6632C45.5199 53.7262 46.2096 53.7262 46.8365 53.8517C47.2754 53.9142 47.7141 54.0397 48.0904 54.1027C48.2785 54.1652 49.0308 54.1652 49.2818 54.1027C50.3473 53.9142 51.6013 53.5382 52.2283 53.1617L52.4793 54.1652C51.0998 54.9172 49.5323 55.6072 48.0278 55.6072C47.338 55.6072 46.523 55.5442 45.7707 55.4817C44.5168 55.3562 43.3881 55.1682 43.012 55.1682C41.9463 55.1682 40.4415 55.6697 39.4384 56.4847" fill="#1F529A"/>
<path fill-rule="evenodd" clip-rule="evenodd" d="M38.4353 62.0646L37.1187 61.4376C38.9369 60.5601 41.6955 59.6196 42.8867 59.4316C44.0152 59.2431 45.3318 59.1181 46.0841 58.8671C46.4604 59.7451 47.1499 60.6226 48.0904 60.6226C48.4668 60.6226 49.0308 60.3721 49.6578 60.1211C50.3473 59.8076 50.9748 59.4941 51.3508 59.3686C51.7268 59.1806 52.9182 58.6791 53.9837 58.1776C54.3602 57.9896 55.4257 57.4881 55.4887 57.4881L56.1782 57.8641C55.9902 58.7421 55.6137 59.8706 55.2377 60.6856C55.1122 60.9986 54.9242 61.2496 54.7987 61.4376C54.4857 61.7511 53.9837 62.2526 53.3568 62.6921C52.6673 63.1931 51.7898 63.6951 50.9118 64.1966C50.2218 64.5725 49.5323 65.0114 48.7803 65.3248L48.4668 64.6353C49.5323 64.0081 50.6608 63.2561 51.6643 62.5036C52.1028 62.1901 52.5418 61.8141 52.8553 61.5006C53.1062 61.3126 53.2317 61.1241 53.3568 60.9361C53.6702 60.5601 54.1717 59.6826 54.2972 59.3061C53.8582 59.4941 52.3538 60.2466 51.6643 60.5601C50.8493 60.9986 49.5953 61.6261 48.8428 62.0021C48.3413 62.2526 47.8396 62.3781 47.4633 62.3781C46.6483 62.3781 46.2722 61.8141 46.0841 61.4376C45.5826 60.5601 45.0812 60.4976 43.6391 60.4976C42.0089 60.4346 39.752 61.1241 38.4353 62.0646Z" fill="#1F529A"/>
<path fill-rule="evenodd" clip-rule="evenodd" d="M46.1469 57.9267C46.1469 57.9267 45.9588 57.1747 45.8334 56.8612C45.8334 56.8612 46.0841 56.7982 46.3976 56.7982C46.8365 56.7982 48.0904 56.9237 48.5918 56.9237C50.4728 56.9237 51.1623 56.3592 51.7268 55.8577C52.2283 55.4192 52.7298 55.0427 53.9837 55.0427C55.1122 55.0427 56.4292 55.4817 56.8052 55.6697L56.7422 56.7357C56.1782 56.4222 55.4257 56.2342 54.7362 56.2342C54.2972 56.2342 53.8582 56.2342 53.5448 56.4222C53.2317 56.6102 52.9808 56.8612 52.6673 57.1117C52.3538 57.3627 51.9148 57.6132 51.2878 57.8641C50.7238 58.1151 49.9713 58.2401 48.8428 58.2401C47.4007 58.2401 46.5857 57.9896 46.1469 57.9267" fill="#1F529A"/>
<path fill-rule="evenodd" clip-rule="evenodd" d="M34.1093 65.7638L34.9871 65.3875C35.7392 65.7011 36.9305 66.0774 37.7456 66.0774C38.2471 66.0774 38.6234 65.8892 38.9368 65.7638C39.1876 65.6385 42.1342 64.1965 43.5763 63.6951C44.0152 63.5066 44.5168 63.4441 44.7049 63.4441C45.0812 63.4441 45.0812 63.5696 45.2063 63.7576C45.4572 64.1965 47.6515 67.2685 47.8396 67.4566C49.6578 66.8924 51.5388 66.0774 52.6047 65.074C53.7332 64.0081 54.6732 62.7546 55.6137 61.7511C55.9272 61.3751 56.3662 61.0616 56.5547 60.9361C57.4947 60.4346 60.4416 60.3721 61.6326 60.4346L60.9431 61.4376C58.7487 61.4376 57.5572 61.6886 56.9932 62.0646C56.8052 62.2526 56.4292 62.6291 56.1157 63.0681C55.3632 64.0081 54.5482 65.3248 54.2347 65.5758C54.8617 66.0145 55.5512 66.3908 56.6797 66.3908C58.4977 66.3908 59.8146 65.2622 60.5041 64.6353L61.1311 64.9487C60.6921 65.5758 60.1281 66.14 59.5011 66.579C58.7487 67.0803 57.8082 67.4566 57.3067 67.5819C56.2412 67.3939 53.9212 66.8924 53.3567 66.8296C51.3508 67.6447 48.0278 68.9613 46.962 69.2747C46.7738 69.3374 46.523 69.4002 46.2096 69.4002C45.3318 69.4629 44.1405 69.4629 43.012 69.4002C42.2599 69.4002 41.5073 69.4002 41.1313 69.3374L40.1281 68.3344C41.0058 68.5224 41.3192 68.5224 42.1342 68.5224C44.0152 68.5224 45.2691 68.2089 45.6454 68.1461C46.0212 68.021 46.0841 67.8327 45.9588 67.5192C45.7707 67.0803 45.5199 66.579 45.0812 66.0774C44.8302 65.8266 44.3286 65.3875 44.1405 65.2622C43.8897 65.074 43.6391 65.0114 42.8867 65.2622C42.2599 65.4503 40.1906 66.579 39.3129 67.0803C38.8742 67.2685 38.4979 67.3939 37.7456 67.2058C36.8679 67.0177 34.8614 66.2655 34.1093 65.7638" fill="#1F529A"/>
<path fill-rule="evenodd" clip-rule="evenodd" d="M39.8145 42.9424C40.1906 42.9424 40.5668 42.5664 40.5668 42.1899C40.5668 41.7514 40.1906 41.4379 39.8145 41.4379C39.3758 41.4379 39.0621 41.7514 39.0621 42.1899C39.0621 42.5664 39.3758 42.9424 39.8145 42.9424Z" fill="#1F529A"/>
</svg>
